<svg width="90" height="90" viewBox="0 0 90 90" fill="none" xmlns="http://www.w3.org/2000/svg">
<path d="M79.6874 69.2625L73.4999 70.7251C72.1124 71.0626 71.0249 72.1126 70.7249 73.5001L69.4124 79.0126C68.6999 82.0126 64.8749 82.9501 62.8874 80.5876L51.6749 67.6875C50.7749 66.6375 51.2624 64.9875 52.6124 64.65C59.2499 63.0375 65.2124 59.325 69.5999 54.0375C70.3124 53.175 71.5874 53.0625 72.3749 53.85L80.6999 62.175C83.5499 65.025 82.5374 68.5875 79.6874 69.2625Z" fill="#FFA928"/>
<path d="M10.1249 69.2625L16.3124 70.7251C17.6999 71.0626 18.7874 72.1126 19.0874 73.5001L20.3999 79.0126C21.1124 82.0126 24.9374 82.9501 26.9249 80.5876L38.1374 67.6875C39.0374 66.6375 38.5499 64.9875 37.1999 64.65C30.5624 63.0375 24.5999 59.325 20.2124 54.0375C19.4999 53.175 18.2249 53.0625 17.4374 53.85L9.11238 62.175C6.26238 65.025 7.27488 68.5875 10.1249 69.2625Z" fill="#FFA928"/>
<path d="M45 7.5C30.4875 7.5 18.75 19.2375 18.75 33.75C18.75 39.1875 20.3625 44.175 23.1375 48.3375C27.1875 54.3375 33.6 58.575 41.0625 59.6625C42.3375 59.8875 43.65 60 45 60C46.35 60 47.6625 59.8875 48.9375 59.6625C56.4 58.575 62.8125 54.3375 66.8625 48.3375C69.6375 44.175 71.25 39.1875 71.25 33.75C71.25 19.2375 59.5125 7.5 45 7.5ZM56.475 32.925L53.3625 36.0375C52.8375 36.5625 52.5375 37.575 52.725 38.325L53.625 42.1875C54.3375 45.225 52.725 46.425 50.025 44.8125L46.275 42.6C45.6 42.1875 44.475 42.1875 43.8 42.6L40.05 44.8125C37.35 46.3875 35.7375 45.225 36.45 42.1875L37.35 38.325C37.5 37.6125 37.2375 36.5625 36.7125 36.0375L33.525 32.925C31.6875 31.0875 32.2875 29.25 34.8375 28.8375L38.85 28.1625C39.525 28.05 40.3125 27.45 40.6125 26.85L42.825 22.425C44.025 20.025 45.975 20.025 47.175 22.425L49.3875 26.85C49.6875 27.45 50.475 28.05 51.1875 28.1625L55.2 28.8375C57.7125 29.25 58.3125 31.0875 56.475 32.925Z" fill="#FFA928"/>
</svg>
