<svg width="358" height="354" viewBox="0 0 358 354" fill="none" xmlns="http://www.w3.org/2000/svg">
<g filter="url(#filter0_b_115_1947)">
<rect width="358" height="354" rx="16" fill="none" fill-opacity="0.4"/>
</g>
<path d="M213.687 93.2625L207.5 94.7251C206.112 95.0626 205.025 96.1126 204.725 97.5001L203.412 103.013C202.7 106.013 198.875 106.95 196.887 104.588L185.675 91.6875C184.775 90.6375 185.262 88.9875 186.612 88.65C193.25 87.0375 199.212 83.325 203.6 78.0375C204.312 77.175 205.587 77.0625 206.375 77.85L214.7 86.175C217.55 89.025 216.537 92.5875 213.687 93.2625Z" fill="#FFA928"/>
<path d="M144.125 93.2625L150.312 94.7251C151.7 95.0626 152.787 96.1126 153.087 97.5001L154.4 103.013C155.112 106.013 158.937 106.95 160.925 104.588L172.137 91.6875C173.037 90.6375 172.55 88.9875 171.2 88.65C164.562 87.0375 158.6 83.325 154.212 78.0375C153.5 77.175 152.225 77.0625 151.437 77.85L143.112 86.175C140.262 89.025 141.275 92.5875 144.125 93.2625Z" fill="#FFA928"/>
<path d="M179 31.5C164.488 31.5 152.75 43.2375 152.75 57.75C152.75 63.1875 154.363 68.175 157.138 72.3375C161.188 78.3375 167.6 82.575 175.062 83.6625C176.337 83.8875 177.65 84 179 84C180.35 84 181.663 83.8875 182.938 83.6625C190.4 82.575 196.812 78.3375 200.862 72.3375C203.637 68.175 205.25 63.1875 205.25 57.75C205.25 43.2375 193.512 31.5 179 31.5ZM190.475 56.925L187.362 60.0375C186.837 60.5625 186.538 61.575 186.725 62.325L187.625 66.1875C188.338 69.225 186.725 70.425 184.025 68.8125L180.275 66.6C179.6 66.1875 178.475 66.1875 177.8 66.6L174.05 68.8125C171.35 70.3875 169.738 69.225 170.45 66.1875L171.35 62.325C171.5 61.6125 171.237 60.5625 170.712 60.0375L167.525 56.925C165.687 55.0875 166.287 53.25 168.837 52.8375L172.85 52.1625C173.525 52.05 174.312 51.45 174.612 50.85L176.825 46.425C178.025 44.025 179.975 44.025 181.175 46.425L183.388 50.85C183.688 51.45 184.475 52.05 185.187 52.1625L189.2 52.8375C191.713 53.25 192.313 55.0875 190.475 56.925Z" fill="#FFA928"/>
<path d="M95.279 141.59C95.279 140.834 95.489 140.198 95.909 139.682C96.329 139.154 96.869 138.806 97.529 138.638L99.995 138.008V136.586H101.471V142.976C101.471 143.144 101.507 143.306 101.579 143.462C101.651 143.618 101.747 143.756 101.867 143.876C101.999 143.984 102.143 144.074 102.299 144.146C102.455 144.206 102.623 144.236 102.803 144.236H103.343C103.511 144.236 103.595 144.32 103.595 144.488V145.748C103.595 145.916 103.511 146 103.343 146H102.803C102.227 146 101.723 145.85 101.291 145.55C100.859 145.25 100.523 144.854 100.283 144.362C100.175 144.458 100.037 144.53 99.869 144.578C99.701 144.626 99.533 144.65 99.365 144.65H97.151C96.575 144.65 96.119 144.476 95.783 144.128C95.447 143.78 95.279 143.324 95.279 142.76V141.59ZM99.995 139.61L97.889 140.132C97.541 140.228 97.265 140.42 97.061 140.708C96.857 140.996 96.755 141.314 96.755 141.662V142.886H99.995V139.61ZM103.335 146C103.167 146 103.083 145.922 103.083 145.766V144.488C103.083 144.32 103.167 144.236 103.335 144.236H105.153C104.985 144.164 104.871 143.99 104.811 143.714C104.751 143.438 104.751 143.174 104.811 142.922L105.081 141.662C105.141 141.374 105.243 141.11 105.387 140.87C105.543 140.63 105.723 140.426 105.927 140.258C106.143 140.078 106.383 139.94 106.647 139.844C106.923 139.736 107.205 139.682 107.493 139.682H108.177C108.537 139.682 108.873 139.754 109.185 139.898C109.509 140.03 109.785 140.216 110.013 140.456C110.253 140.684 110.439 140.954 110.571 141.266C110.703 141.578 110.769 141.908 110.769 142.256V143.552C110.769 143.756 110.745 143.918 110.697 144.038C110.649 144.158 110.625 144.224 110.625 144.236H113.487V141.698C113.487 141.35 113.391 141.056 113.199 140.816C113.019 140.564 112.779 140.39 112.479 140.294L106.395 138.422L106.809 136.892L112.731 138.728C113.379 138.932 113.913 139.298 114.333 139.826C114.765 140.354 114.981 140.996 114.981 141.752V144.11C114.981 144.686 114.807 145.148 114.459 145.496C114.111 145.832 113.649 146 113.073 146H110.301V145.01C110.265 145.13 110.187 145.25 110.067 145.37C109.959 145.478 109.827 145.58 109.671 145.676C109.515 145.772 109.347 145.85 109.167 145.91C108.987 145.97 108.807 146 108.627 146H103.335ZM109.275 144.236V142.166C109.275 141.902 109.185 141.68 109.005 141.5C108.825 141.32 108.597 141.23 108.321 141.23H107.403C107.175 141.23 106.971 141.302 106.791 141.446C106.623 141.59 106.515 141.776 106.467 142.004L106.233 143.282C106.173 143.546 106.227 143.774 106.395 143.966C106.575 144.146 106.797 144.236 107.061 144.236H109.275ZM121.049 145.748C121.049 145.916 120.965 146 120.797 146H120.167C119.771 146 119.399 145.928 119.051 145.784C118.703 145.628 118.397 145.418 118.133 145.154C117.869 144.89 117.659 144.584 117.503 144.236C117.359 143.876 117.287 143.498 117.287 143.102V133.976H118.763V143.084C118.763 143.396 118.877 143.666 119.105 143.894C119.333 144.122 119.603 144.236 119.915 144.236H120.797C120.869 144.236 120.929 144.266 120.977 144.326C121.025 144.374 121.049 144.434 121.049 144.506V145.748ZM124.966 144.236H127.63V141.968C127.63 141.692 127.534 141.464 127.342 141.284C127.15 141.092 126.916 140.996 126.64 140.996H125.362C125.122 140.996 124.912 141.068 124.732 141.212C124.564 141.356 124.456 141.548 124.408 141.788L124.12 143.228C124.072 143.492 124.132 143.726 124.3 143.93C124.468 144.134 124.69 144.236 124.966 144.236ZM122.608 143.21L122.968 141.356C123.088 140.768 123.376 140.282 123.832 139.898C124.3 139.514 124.834 139.322 125.434 139.322H126.442C126.814 139.322 127.162 139.394 127.486 139.538C127.81 139.67 128.092 139.856 128.332 140.096C128.572 140.336 128.758 140.618 128.89 140.942C129.034 141.266 129.106 141.614 129.106 141.986V144.182C129.106 144.71 128.938 145.148 128.602 145.496C128.266 145.832 127.834 146 127.306 146H125.128C124.756 146 124.408 145.916 124.084 145.748C123.76 145.58 123.49 145.286 123.274 144.866C123.034 145.286 122.734 145.58 122.374 145.748C122.026 145.916 121.66 146 121.276 146H120.79C120.622 146 120.538 145.916 120.538 145.748V144.488C120.538 144.428 120.562 144.374 120.61 144.326C120.658 144.266 120.718 144.236 120.79 144.236H121.366C121.666 144.236 121.93 144.14 122.158 143.948C122.398 143.756 122.548 143.51 122.608 143.21ZM136.912 132.572L137.722 133.724L135.544 135.56C135.448 135.644 135.37 135.746 135.31 135.866C135.25 135.974 135.214 136.088 135.202 136.208C135.202 136.328 135.22 136.448 135.256 136.568C135.304 136.676 135.382 136.772 135.49 136.856L138.064 138.782C138.376 138.362 138.7 137.954 139.036 137.558C139.384 137.162 139.75 136.778 140.134 136.406L141.124 135.452L142.222 136.55L141.322 137.396C141.106 137.6 140.908 137.798 140.728 137.99C140.548 138.17 140.374 138.362 140.206 138.566C140.038 138.758 139.87 138.962 139.702 139.178C139.546 139.394 139.372 139.64 139.18 139.916L134.86 146.144L133.564 145.226L137.362 139.844C137.23 139.844 137.062 139.808 136.858 139.736C136.666 139.652 136.516 139.568 136.408 139.484L134.698 138.152C134.374 137.9 134.14 137.606 133.996 137.27C133.852 136.922 133.786 136.568 133.798 136.208C133.81 135.848 133.9 135.5 134.068 135.164C134.236 134.816 134.47 134.522 134.77 134.282L136.912 132.572ZM150.501 141.464C150.381 141.56 150.285 141.668 150.213 141.788C150.141 141.908 150.099 142.07 150.087 142.274V142.958C150.087 143.138 150.123 143.318 150.195 143.498C150.267 143.678 150.369 143.84 150.501 143.984C150.645 144.116 150.807 144.224 150.987 144.308C151.179 144.392 151.383 144.434 151.599 144.434H152.211C152.451 144.434 152.661 144.392 152.841 144.308C153.021 144.212 153.177 144.092 153.309 143.948C153.441 143.804 153.537 143.648 153.597 143.48C153.669 143.3 153.705 143.132 153.705 142.976V142.31C153.705 142.142 153.669 141.986 153.597 141.842C153.525 141.686 153.411 141.554 153.255 141.446C153.207 141.422 153.105 141.362 152.949 141.266C152.793 141.158 152.631 141.05 152.463 140.942C152.271 140.822 152.061 140.684 151.833 140.528L150.501 141.464ZM150.213 137.612L154.065 140.204C154.461 140.48 154.743 140.816 154.911 141.212C155.091 141.608 155.181 142.016 155.181 142.436V143.066C155.181 143.462 155.109 143.846 154.965 144.218C154.821 144.59 154.617 144.926 154.353 145.226C154.089 145.514 153.765 145.748 153.381 145.928C152.997 146.108 152.559 146.198 152.067 146.198H151.689C151.221 146.198 150.795 146.108 150.411 145.928C150.039 145.748 149.715 145.514 149.439 145.226C149.175 144.926 148.971 144.59 148.827 144.218C148.683 143.834 148.611 143.45 148.611 143.066V142.472C148.611 141.968 148.719 141.518 148.935 141.122C149.163 140.714 149.445 140.408 149.781 140.204C149.901 140.132 150.009 140.066 150.105 140.006C150.213 139.946 150.303 139.886 150.375 139.826C150.471 139.778 150.555 139.73 150.627 139.682L149.403 138.872L150.213 137.612ZM159.169 140.15V143.156C159.169 143.468 159.283 143.726 159.511 143.93C159.751 144.134 160.027 144.236 160.339 144.236H162.085C162.253 144.236 162.337 144.32 162.337 144.488V145.748C162.337 145.916 162.253 146 162.085 146H160.591C160.315 146 160.051 145.952 159.799 145.856C159.547 145.748 159.337 145.574 159.169 145.334V145.982C159.169 146.414 159.097 146.828 158.953 147.224C158.821 147.62 158.629 147.986 158.377 148.322C158.137 148.658 157.849 148.946 157.513 149.186C157.177 149.438 156.805 149.636 156.397 149.78L154.183 150.536L153.715 149.096L156.037 148.322C156.541 148.154 156.943 147.86 157.243 147.44C157.543 147.02 157.693 146.546 157.693 146.018V140.15H159.169ZM160.591 138.188H158.881V136.478H160.591V138.188ZM157.945 138.188H156.235V136.478H157.945V138.188ZM159.223 135.812H157.513V134.102H159.223V135.812ZM162.225 148.16H163.917V149.87H162.225V148.16ZM164.853 148.16H166.563V149.87H164.853V148.16ZM165.645 144.236C165.957 144.236 166.227 144.122 166.455 143.894C166.683 143.666 166.797 143.396 166.797 143.084V139.628H168.273V143.084C168.273 143.48 168.195 143.858 168.039 144.218C167.895 144.566 167.691 144.872 167.427 145.136C167.163 145.4 166.851 145.61 166.491 145.766C166.143 145.922 165.765 146 165.357 146H162.081C162.009 146 161.949 145.976 161.901 145.928C161.853 145.868 161.829 145.808 161.829 145.748V144.506C161.829 144.434 161.853 144.374 161.901 144.326C161.949 144.266 162.009 144.236 162.081 144.236H165.645ZM177.306 145.91C177.306 146.354 177.24 146.78 177.108 147.188C176.976 147.596 176.784 147.968 176.532 148.304C176.292 148.652 175.998 148.952 175.65 149.204C175.314 149.468 174.936 149.672 174.516 149.816L172.302 150.572L171.834 149.114L174.138 148.34C174.642 148.172 175.032 147.89 175.308 147.494C175.596 147.098 175.758 146.63 175.794 146.09L175.812 145.838C175.704 145.898 175.572 145.94 175.416 145.964C175.26 145.988 175.11 146 174.966 146H173.31C172.914 146 172.548 145.916 172.212 145.748C171.876 145.58 171.594 145.358 171.366 145.082C171.15 144.806 170.988 144.488 170.88 144.128C170.784 143.768 170.772 143.396 170.844 143.012L171.15 141.374C171.27 140.774 171.558 140.282 172.014 139.898C172.482 139.514 173.016 139.322 173.616 139.322H174.642C175.014 139.322 175.362 139.394 175.686 139.538C176.01 139.67 176.292 139.862 176.532 140.114C176.772 140.354 176.958 140.636 177.09 140.96C177.234 141.284 177.306 141.626 177.306 141.986V145.91ZM175.83 144.236V141.986C175.83 141.71 175.728 141.476 175.524 141.284C175.332 141.092 175.098 140.996 174.822 140.996H173.544C173.304 140.996 173.094 141.068 172.914 141.212C172.746 141.356 172.638 141.548 172.59 141.788L172.302 143.246C172.254 143.51 172.314 143.744 172.482 143.948C172.65 144.14 172.872 144.236 173.148 144.236H175.83ZM186.278 139.628H187.988V137.918H186.278V139.628ZM188.924 139.628H190.634V137.918H188.924V139.628ZM183.362 139.628V142.472C183.362 142.976 183.536 143.396 183.884 143.732C184.232 144.068 184.658 144.236 185.162 144.236H192.38C192.692 144.236 192.962 144.128 193.19 143.912C193.418 143.684 193.532 143.408 193.532 143.084V140.15H195.008V143.084C195.008 143.408 195.122 143.684 195.35 143.912C195.578 144.128 195.854 144.236 196.178 144.236H196.7C196.868 144.236 196.952 144.32 196.952 144.488V145.748C196.952 145.916 196.868 146 196.7 146H196.43C195.998 146 195.596 145.904 195.224 145.712C194.852 145.508 194.54 145.22 194.288 144.848C194.012 145.232 193.688 145.52 193.316 145.712C192.944 145.904 192.536 146 192.092 146H185.252C184.784 146 184.346 145.916 183.938 145.748C183.53 145.568 183.17 145.328 182.858 145.028C182.558 144.716 182.318 144.356 182.138 143.948C181.97 143.54 181.886 143.102 181.886 142.634V139.628H183.362ZM199.176 144.236C199.488 144.236 199.758 144.122 199.986 143.894C200.214 143.666 200.328 143.396 200.328 143.084V139.628H201.804V143.084C201.804 143.48 201.726 143.858 201.57 144.218C201.426 144.566 201.222 144.872 200.958 145.136C200.694 145.4 200.382 145.61 200.022 145.766C199.674 145.922 199.296 146 198.888 146H196.692C196.62 146 196.56 145.976 196.512 145.928C196.464 145.868 196.44 145.808 196.44 145.748V144.506C196.44 144.434 196.464 144.374 196.512 144.326C196.56 144.266 196.62 144.236 196.692 144.236H199.176ZM200.148 137.648H201.858V135.938H200.148V137.648ZM207.937 145.748C207.937 145.916 207.853 146 207.685 146H207.055C206.659 146 206.287 145.928 205.939 145.784C205.591 145.628 205.285 145.418 205.021 145.154C204.757 144.89 204.547 144.584 204.391 144.236C204.247 143.876 204.175 143.498 204.175 143.102V133.976H205.651V143.084C205.651 143.396 205.765 143.666 205.993 143.894C206.221 144.122 206.491 144.236 206.803 144.236H207.685C207.757 144.236 207.817 144.266 207.865 144.326C207.913 144.374 207.937 144.434 207.937 144.506V145.748ZM209.605 140.96L208.507 139.934L213.421 134.192L214.501 135.182L210.973 139.34H217.993C218.365 139.34 218.713 139.412 219.037 139.556C219.361 139.688 219.643 139.874 219.883 140.114C220.123 140.354 220.309 140.636 220.441 140.96C220.585 141.284 220.657 141.632 220.657 142.004V143.336C220.657 143.708 220.585 144.062 220.441 144.398C220.297 144.722 220.099 145.004 219.847 145.244C219.607 145.472 219.319 145.658 218.983 145.802C218.659 145.934 218.317 146 217.957 146H207.679C207.607 146 207.547 145.976 207.499 145.928C207.451 145.868 207.427 145.808 207.427 145.748V144.488C207.427 144.32 207.511 144.236 207.679 144.236H218.191C218.455 144.236 218.683 144.14 218.875 143.948C219.079 143.756 219.181 143.522 219.181 143.246V142.04C219.193 141.728 219.091 141.47 218.875 141.266C218.671 141.062 218.419 140.96 218.119 140.96H209.605ZM224.424 146H222.948V133.976H224.424V146ZM237.799 144.236H238.231C238.291 144.236 238.345 144.266 238.393 144.326C238.453 144.374 238.483 144.434 238.483 144.506V145.748C238.483 145.916 238.399 146 238.231 146H237.871C237.415 146 237.001 145.892 236.629 145.676C236.257 145.448 235.951 145.154 235.711 144.794C235.459 145.178 235.135 145.478 234.739 145.694C234.343 145.898 233.917 146 233.461 146H231.031C230.743 146 230.473 145.946 230.221 145.838C229.969 145.718 229.747 145.568 229.555 145.388C229.363 145.196 229.213 144.974 229.105 144.722C228.997 144.458 228.943 144.182 228.943 143.894V141.842H230.221V143.588C230.221 143.768 230.275 143.924 230.383 144.056C230.491 144.176 230.641 144.236 230.833 144.236H233.461C233.689 144.236 233.893 144.188 234.073 144.092C234.265 143.996 234.421 143.87 234.541 143.714C234.673 143.546 234.763 143.36 234.811 143.156C234.871 142.952 234.877 142.748 234.829 142.544L233.461 137.576L234.865 137.054L236.611 143.318C236.683 143.594 236.827 143.816 237.043 143.984C237.271 144.152 237.523 144.236 237.799 144.236ZM238.373 148.16H240.065V149.87H238.373V148.16ZM241.001 148.16H242.711V149.87H241.001V148.16ZM241.793 144.236C242.105 144.236 242.375 144.122 242.603 143.894C242.831 143.666 242.945 143.396 242.945 143.084V139.628H244.421V143.084C244.421 143.48 244.343 143.858 244.187 144.218C244.043 144.566 243.839 144.872 243.575 145.136C243.311 145.4 242.999 145.61 242.639 145.766C242.291 145.922 241.913 146 241.505 146H238.229C238.157 146 238.097 145.976 238.049 145.928C238.001 145.868 237.977 145.808 237.977 145.748V144.506C237.977 144.434 238.001 144.374 238.049 144.326C238.097 144.266 238.157 144.236 238.229 144.236H241.793ZM248.957 140.15V143.156C248.957 143.468 249.071 143.726 249.299 143.93C249.539 144.134 249.815 144.236 250.127 144.236H251.765C251.933 144.236 252.017 144.32 252.017 144.488V145.748C252.017 145.916 251.933 146 251.765 146H250.379C250.103 146 249.839 145.952 249.587 145.856C249.335 145.748 249.125 145.574 248.957 145.334V145.982C248.957 146.414 248.885 146.828 248.741 147.224C248.609 147.62 248.417 147.986 248.165 148.322C247.925 148.658 247.637 148.946 247.301 149.186C246.965 149.438 246.593 149.636 246.185 149.78L243.971 150.536L243.503 149.096L245.825 148.322C246.329 148.154 246.731 147.86 247.031 147.44C247.331 147.02 247.481 146.546 247.481 146.018V140.15H248.957ZM254.501 136.856H256.211V135.146H254.501V136.856ZM251.513 144.506C251.513 144.326 251.597 144.236 251.765 144.236H254.789C255.353 144.236 255.893 144.146 256.409 143.966C256.937 143.774 257.393 143.486 257.777 143.102L259.199 141.752C259.319 141.632 259.415 141.554 259.487 141.518L255.347 140.276C255.155 140.216 254.981 140.234 254.825 140.33C254.669 140.426 254.561 140.564 254.501 140.744L253.961 142.31L252.665 141.95L253.097 140.456C253.193 140.132 253.337 139.856 253.529 139.628C253.733 139.388 253.961 139.202 254.213 139.07C254.477 138.926 254.759 138.842 255.059 138.818C255.371 138.782 255.671 138.806 255.959 138.89L262.979 140.996L262.511 142.418L261.755 142.184C261.431 142.076 261.161 142.076 260.945 142.184C260.729 142.292 260.513 142.448 260.297 142.652L258.227 144.596C257.723 145.064 257.159 145.412 256.535 145.64C255.911 145.868 255.257 145.988 254.573 146H251.765C251.693 146 251.633 145.976 251.585 145.928C251.537 145.868 251.513 145.808 251.513 145.748V144.506Z" fill="white"/>
<path d="M82.1036 237.632C81.1223 237.632 80.1943 237.44 79.3196 237.056C78.445 236.693 77.677 236.181 77.0156 235.52C76.3756 234.88 75.8636 234.123 75.4796 233.248C75.117 232.373 74.9356 231.445 74.9356 230.464V221.088H78.4556V229.952C78.4556 230.443 78.541 230.901 78.7116 231.328C78.9036 231.755 79.1596 232.128 79.4796 232.448C79.7996 232.768 80.173 233.013 80.5996 233.184C81.0263 233.376 81.485 233.472 81.9756 233.472H87.7036C88.5143 233.472 89.197 233.195 89.7516 232.64C90.3063 232.085 90.5836 231.403 90.5836 230.592V220.576H94.1036V231.2C94.1036 232.096 93.933 232.928 93.5916 233.696C93.2503 234.485 92.7916 235.168 92.2156 235.744C91.6396 236.32 90.957 236.779 90.1676 237.12C89.3996 237.461 88.5676 237.632 87.6716 237.632H82.1036ZM82.6796 216.896H86.3596V220.576H82.6796V216.896ZM104.631 231.552C104.631 231.851 104.482 232 104.183 232H103.255C102.487 232 101.762 231.861 101.079 231.584C100.396 231.285 99.7991 230.88 99.2871 230.368C98.7751 229.856 98.3698 229.259 98.0711 228.576C97.7725 227.893 97.6231 227.168 97.6231 226.4V210.08H101.143V226.304C101.143 226.731 101.292 227.093 101.591 227.392C101.89 227.691 102.252 227.84 102.679 227.84H104.183C104.311 227.84 104.418 227.893 104.503 228C104.588 228.085 104.631 228.192 104.631 228.32V231.552ZM111.436 227.84H115.948V224.32C115.948 223.979 115.831 223.691 115.596 223.456C115.361 223.221 115.073 223.104 114.732 223.104H112.14C111.841 223.104 111.585 223.2 111.372 223.392C111.159 223.563 111.02 223.797 110.956 224.096L110.444 226.656C110.38 226.955 110.444 227.232 110.636 227.488C110.849 227.723 111.116 227.84 111.436 227.84ZM106.892 226.432L107.532 223.136C107.639 222.56 107.841 222.027 108.14 221.536C108.46 221.024 108.833 220.597 109.26 220.256C109.687 219.893 110.167 219.616 110.7 219.424C111.255 219.211 111.831 219.104 112.428 219.104H114.22C114.945 219.104 115.628 219.243 116.268 219.52C116.908 219.797 117.463 220.171 117.932 220.64C118.401 221.109 118.775 221.664 119.052 222.304C119.329 222.944 119.468 223.627 119.468 224.352V228.096C119.468 228.629 119.361 229.141 119.148 229.632C118.956 230.101 118.679 230.517 118.316 230.88C117.975 231.221 117.569 231.499 117.1 231.712C116.631 231.904 116.129 232 115.596 232H111.884C111.244 232 110.636 231.872 110.06 231.616C109.484 231.339 108.961 230.859 108.492 230.176C108.001 230.859 107.457 231.339 106.86 231.616C106.263 231.872 105.623 232 104.94 232H104.172C103.873 232 103.724 231.851 103.724 231.552V228.288C103.724 227.989 103.873 227.84 104.172 227.84H105.196C105.623 227.84 105.985 227.712 106.284 227.456C106.604 227.2 106.807 226.859 106.892 226.432ZM127.67 232C126.881 232 126.155 231.84 125.494 231.52C124.833 231.179 124.278 230.731 123.83 230.176C123.382 229.621 123.051 228.992 122.838 228.288C122.646 227.563 122.625 226.816 122.774 226.048L123.318 223.136C123.425 222.56 123.627 222.027 123.926 221.536C124.246 221.024 124.619 220.587 125.046 220.224C125.473 219.861 125.953 219.584 126.486 219.392C127.041 219.179 127.617 219.072 128.214 219.072H130.006C130.731 219.072 131.414 219.211 132.054 219.488C132.694 219.765 133.249 220.149 133.718 220.64C134.187 221.109 134.561 221.664 134.838 222.304C135.115 222.944 135.254 223.627 135.254 224.352V227.84H137.494C137.793 227.84 137.942 227.989 137.942 228.288V231.552C137.942 231.851 137.793 232 137.494 232H135.222C135.222 232.021 135.222 232.075 135.222 232.16C135.222 232.245 135.211 232.352 135.19 232.48C135.062 233.888 134.518 235.157 133.558 236.288C132.619 237.419 131.414 238.24 129.942 238.752L125.558 240.256L124.47 236.896L128.982 235.392C129.793 235.115 130.443 234.667 130.934 234.048C131.446 233.429 131.702 232.693 131.702 231.84V231.616C131.467 231.723 131.179 231.819 130.838 231.904C130.497 231.968 130.155 232 129.814 232H127.67ZM127.222 227.84H131.734V224.32C131.734 223.979 131.617 223.691 131.382 223.456C131.147 223.2 130.859 223.072 130.518 223.072H127.926C127.627 223.072 127.371 223.168 127.158 223.36C126.945 223.552 126.806 223.797 126.742 224.096L126.23 226.656C126.166 226.955 126.23 227.232 126.422 227.488C126.635 227.723 126.902 227.84 127.222 227.84ZM142.924 227.84C143.351 227.84 143.714 227.691 144.012 227.392C144.311 227.072 144.46 226.699 144.46 226.272V219.648H147.98V226.272C147.98 227.061 147.831 227.808 147.532 228.512C147.234 229.195 146.818 229.803 146.284 230.336C145.772 230.848 145.164 231.253 144.46 231.552C143.778 231.851 143.042 232 142.252 232H137.484C137.356 232 137.25 231.957 137.164 231.872C137.079 231.765 137.036 231.659 137.036 231.552V228.32C137.036 228.192 137.079 228.085 137.164 228C137.25 227.893 137.356 227.84 137.484 227.84H142.924ZM138.956 216.736H142.636V213.056H138.956V216.736ZM144.3 216.736H147.98V213.056H144.3V216.736ZM167.367 193.936L170.439 198.112L164.055 203.536C163.735 203.792 163.527 204.144 163.431 204.592C163.335 205.04 163.495 205.424 163.911 205.744L170.151 210.496C170.919 209.472 171.735 208.48 172.599 207.52C173.463 206.56 174.359 205.616 175.287 204.688L178.503 201.616L182.583 205.696L179.607 208.528C177.463 210.512 175.575 212.688 173.943 215.056L161.991 232.24L157.239 228.976L167.511 214.48C167.095 214.48 166.599 214.384 166.023 214.192C165.447 213.968 164.983 213.728 164.631 213.472L160.887 210.544C159.895 209.776 159.175 208.88 158.727 207.856C158.279 206.8 158.071 205.744 158.103 204.688C158.167 203.6 158.439 202.56 158.919 201.568C159.431 200.544 160.135 199.68 161.031 198.976L167.367 193.936ZM195.791 203.056L194.015 201.472L197.807 196.72L203.999 202.528C205.247 203.68 206.479 204.912 207.695 206.224C208.911 207.504 210.015 208.944 211.007 210.544C211.999 212.112 212.799 213.872 213.407 215.824C214.015 217.776 214.319 219.984 214.319 222.448C214.319 223.792 214.143 225.056 213.791 226.24C213.471 227.392 212.959 228.4 212.255 229.264C211.551 230.096 210.655 230.768 209.567 231.28C208.511 231.76 207.231 232 205.727 232C204.607 232 203.567 231.824 202.607 231.472C201.679 231.088 200.847 230.576 200.111 229.936C199.375 230.576 198.511 231.088 197.519 231.472C196.559 231.824 195.599 232 194.639 232C193.071 232 191.727 231.728 190.607 231.184C189.519 230.64 188.623 229.936 187.919 229.072C187.215 228.176 186.703 227.152 186.383 226C186.095 224.848 185.951 223.664 185.951 222.448C185.951 220.336 186.223 218.384 186.767 216.592C187.343 214.768 188.079 213.072 188.975 211.504C189.903 209.904 190.959 208.416 192.143 207.04C193.327 205.632 194.543 204.304 195.791 203.056ZM200.111 206.992C198.415 208.592 197.023 210.016 195.935 211.264C194.847 212.512 193.983 213.712 193.343 214.864C192.735 216.016 192.303 217.2 192.047 218.416C191.823 219.632 191.711 220.992 191.711 222.496C191.711 223.392 191.919 224.16 192.335 224.8C192.751 225.44 193.423 225.76 194.351 225.76H194.639C195.279 225.76 195.839 225.568 196.319 225.184C196.799 224.8 197.167 224.048 197.423 222.928L198.335 218.992L203.999 220L203.087 224.032C203.279 224.544 203.599 224.96 204.047 225.28C204.527 225.6 205.039 225.76 205.583 225.76H205.871C207.663 225.76 208.559 224.672 208.559 222.496C208.559 220.96 208.431 219.584 208.175 218.368C207.919 217.152 207.471 215.968 206.831 214.816C206.223 213.632 205.375 212.416 204.287 211.168C203.199 209.92 201.807 208.528 200.111 206.992ZM228.858 211.456C229.946 211.456 230.97 211.664 231.93 212.08C232.89 212.496 233.722 213.056 234.426 213.76C235.162 214.464 235.738 215.296 236.154 216.256C236.57 217.216 236.778 218.24 236.778 219.328V221.776C236.778 222.864 236.57 223.888 236.154 224.848C235.738 225.776 235.162 226.608 234.426 227.344C233.722 228.048 232.89 228.608 231.93 229.024C230.97 229.44 229.946 229.648 228.858 229.648H226.506C225.45 229.648 224.442 229.44 223.482 229.024C222.522 228.608 221.674 228.048 220.938 227.344C220.234 226.608 219.674 225.776 219.258 224.848C218.842 223.888 218.634 222.864 218.634 221.776V219.328C218.634 218.24 218.842 217.216 219.258 216.256C219.674 215.296 220.234 214.464 220.938 213.76C221.642 213.056 222.474 212.496 223.434 212.08C224.394 211.664 225.418 211.456 226.506 211.456H228.858ZM230.97 221.584V219.28C230.97 218.736 230.794 218.304 230.442 217.984C230.09 217.632 229.642 217.456 229.098 217.456H226.314C225.77 217.456 225.322 217.632 224.97 217.984C224.618 218.336 224.442 218.768 224.442 219.28V221.584C224.442 222.096 224.618 222.528 224.97 222.88C225.322 223.232 225.77 223.408 226.314 223.408H229.098C229.674 223.408 230.122 223.232 230.442 222.88C230.794 222.528 230.97 222.096 230.97 221.584ZM251.78 211.456C252.868 211.456 253.892 211.664 254.852 212.08C255.812 212.496 256.644 213.056 257.348 213.76C258.084 214.464 258.66 215.296 259.076 216.256C259.492 217.216 259.7 218.24 259.7 219.328V221.776C259.7 222.864 259.492 223.888 259.076 224.848C258.66 225.776 258.084 226.608 257.348 227.344C256.644 228.048 255.812 228.608 254.852 229.024C253.892 229.44 252.868 229.648 251.78 229.648H249.428C248.372 229.648 247.364 229.44 246.404 229.024C245.444 228.608 244.596 228.048 243.86 227.344C243.156 226.608 242.596 225.776 242.18 224.848C241.764 223.888 241.556 222.864 241.556 221.776V219.328C241.556 218.24 241.764 217.216 242.18 216.256C242.596 215.296 243.156 214.464 243.86 213.76C244.564 213.056 245.396 212.496 246.356 212.08C247.316 211.664 248.34 211.456 249.428 211.456H251.78ZM253.892 221.584V219.28C253.892 218.736 253.716 218.304 253.364 217.984C253.012 217.632 252.564 217.456 252.02 217.456H249.236C248.692 217.456 248.244 217.632 247.892 217.984C247.54 218.336 247.364 218.768 247.364 219.28V221.584C247.364 222.096 247.54 222.528 247.892 222.88C248.244 223.232 248.692 223.408 249.236 223.408H252.02C252.596 223.408 253.044 223.232 253.364 222.88C253.716 222.528 253.892 222.096 253.892 221.584ZM274.702 211.456C275.79 211.456 276.814 211.664 277.774 212.08C278.734 212.496 279.566 213.056 280.27 213.76C281.006 214.464 281.582 215.296 281.998 216.256C282.414 217.216 282.622 218.24 282.622 219.328V221.776C282.622 222.864 282.414 223.888 281.998 224.848C281.582 225.776 281.006 226.608 280.27 227.344C279.566 228.048 278.734 228.608 277.774 229.024C276.814 229.44 275.79 229.648 274.702 229.648H272.35C271.294 229.648 270.286 229.44 269.326 229.024C268.366 228.608 267.518 228.048 266.782 227.344C266.078 226.608 265.518 225.776 265.102 224.848C264.686 223.888 264.478 222.864 264.478 221.776V219.328C264.478 218.24 264.686 217.216 265.102 216.256C265.518 215.296 266.078 214.464 266.782 213.76C267.486 213.056 268.318 212.496 269.278 212.08C270.238 211.664 271.262 211.456 272.35 211.456H274.702ZM276.814 221.584V219.28C276.814 218.736 276.638 218.304 276.286 217.984C275.934 217.632 275.486 217.456 274.942 217.456H272.158C271.614 217.456 271.166 217.632 270.814 217.984C270.462 218.336 270.286 218.768 270.286 219.28V221.584C270.286 222.096 270.462 222.528 270.814 222.88C271.166 223.232 271.614 223.408 272.158 223.408H274.942C275.518 223.408 275.966 223.232 276.286 222.88C276.638 222.528 276.814 222.096 276.814 221.584Z" fill="white"/>
<path d="M108.14 270.888C108.449 270.963 108.694 271.101 108.876 271.304C109.057 271.507 109.148 271.763 109.148 272.072V272.744C109.148 273.117 109.073 273.469 108.924 273.8C108.785 274.141 108.593 274.435 108.348 274.68C108.102 274.925 107.814 275.117 107.484 275.256C107.153 275.405 106.801 275.48 106.428 275.48H103.196C102.769 275.48 102.369 275.4 101.996 275.24C101.622 275.08 101.297 274.861 101.02 274.584C100.742 274.307 100.524 273.981 100.364 273.608C100.204 273.235 100.124 272.835 100.124 272.408V268.712H101.004V272.248C101.004 272.547 101.057 272.829 101.164 273.096C101.281 273.363 101.441 273.592 101.644 273.784C101.846 273.987 102.081 274.147 102.348 274.264C102.614 274.381 102.897 274.44 103.196 274.44H106.428C106.684 274.44 106.924 274.392 107.148 274.296C107.372 274.2 107.564 274.067 107.724 273.896C107.894 273.725 108.028 273.528 108.124 273.304C108.22 273.08 108.268 272.84 108.268 272.584V271.88L103.948 270.872V269.24C103.948 268.867 104.012 268.52 104.14 268.2C104.278 267.88 104.46 267.597 104.684 267.352C104.908 267.107 105.164 266.909 105.452 266.76C105.75 266.611 106.06 266.515 106.38 266.472L108.108 266.248L108.236 267.144L106.284 267.416C105.846 267.48 105.489 267.688 105.212 268.04C104.945 268.392 104.812 268.787 104.812 269.224V270.104L108.14 270.888ZM112.426 273H111.546V262.6H112.426V273ZM115.757 268.328V270.68C115.757 271.032 115.88 271.336 116.125 271.592C116.381 271.837 116.691 271.96 117.053 271.96H118.797C118.861 271.96 118.915 271.987 118.957 272.04C119 272.083 119.021 272.136 119.021 272.2V272.776C119.021 272.925 118.947 273 118.797 273H117.213C116.925 273 116.653 272.941 116.397 272.824C116.141 272.696 115.928 272.525 115.757 272.312V273.16C115.757 273.523 115.699 273.869 115.581 274.2C115.475 274.541 115.32 274.851 115.117 275.128C114.915 275.416 114.669 275.667 114.381 275.88C114.104 276.093 113.795 276.259 113.453 276.376L111.757 276.968L111.469 276.056L113.277 275.448C113.757 275.288 114.141 275.005 114.429 274.6C114.728 274.195 114.877 273.736 114.877 273.224V268.328H115.757ZM120.477 271.96C120.829 271.96 121.128 271.837 121.373 271.592C121.629 271.336 121.757 271.032 121.757 270.68V267.864H122.637V270.68C122.637 271 122.573 271.304 122.445 271.592C122.328 271.869 122.162 272.115 121.949 272.328C121.746 272.531 121.501 272.696 121.213 272.824C120.936 272.941 120.637 273 120.317 273H118.797C118.648 273 118.573 272.925 118.573 272.776V272.2C118.573 272.136 118.594 272.083 118.637 272.04C118.68 271.987 118.733 271.96 118.797 271.96H120.477ZM119.053 276.12H120.253V274.92H119.053V276.12ZM128.482 269.048C128.344 269.155 128.242 269.272 128.178 269.4C128.114 269.528 128.077 269.693 128.066 269.896V270.488C128.066 270.712 128.109 270.925 128.194 271.128C128.28 271.32 128.392 271.491 128.53 271.64C128.68 271.779 128.85 271.891 129.042 271.976C129.245 272.061 129.458 272.104 129.682 272.104H130.034C130.258 272.104 130.466 272.061 130.658 271.976C130.85 271.891 131.016 271.779 131.154 271.64C131.304 271.491 131.421 271.32 131.506 271.128C131.592 270.925 131.634 270.712 131.634 270.488V269.896C131.634 269.736 131.597 269.581 131.522 269.432C131.448 269.272 131.336 269.133 131.186 269.016C131.144 268.984 131.048 268.925 130.898 268.84C130.76 268.744 130.61 268.643 130.45 268.536C130.269 268.419 130.072 268.285 129.858 268.136L128.482 269.048ZM128.53 266.104C128.68 266.211 128.845 266.323 129.026 266.44C129.176 266.547 129.341 266.664 129.522 266.792C129.714 266.92 129.912 267.053 130.114 267.192C130.573 267.512 131.101 267.875 131.698 268.28C131.944 268.472 132.141 268.723 132.29 269.032C132.44 269.331 132.514 269.667 132.514 270.04V270.632C132.514 270.973 132.45 271.299 132.322 271.608C132.194 271.907 132.018 272.173 131.794 272.408C131.57 272.632 131.304 272.813 130.994 272.952C130.696 273.08 130.37 273.144 130.018 273.144H129.682C129.341 273.144 129.016 273.08 128.706 272.952C128.408 272.813 128.146 272.632 127.922 272.408C127.698 272.173 127.517 271.907 127.378 271.608C127.25 271.299 127.186 270.973 127.186 270.632V270.072C127.186 269.688 127.261 269.341 127.41 269.032C127.56 268.723 127.773 268.472 128.05 268.28C128.168 268.195 128.29 268.115 128.418 268.04C128.546 267.965 128.664 267.891 128.77 267.816C128.898 267.741 129.021 267.667 129.138 267.592L128.05 266.872L128.53 266.104ZM136.427 273C135.979 273 135.6 272.845 135.291 272.536C134.982 272.227 134.827 271.848 134.827 271.4V269.832H135.579V271.176C135.579 271.389 135.638 271.576 135.755 271.736C135.883 271.885 136.07 271.96 136.315 271.96H138.779C139.142 271.96 139.435 271.885 139.659 271.736C139.883 271.587 140.043 271.4 140.139 271.176C140.235 270.952 140.278 270.717 140.267 270.472C140.256 270.216 140.192 269.992 140.075 269.8L138.283 266.6L139.019 266.088L140.747 269.192C141.003 269.651 141.131 270.109 141.131 270.568C141.142 271.016 141.046 271.421 140.843 271.784C140.651 272.147 140.368 272.44 139.995 272.664C139.622 272.888 139.195 273 138.715 273H136.427ZM146.652 272.776C146.652 272.925 146.577 273 146.428 273H145.788C145.468 273 145.164 272.941 144.876 272.824C144.598 272.696 144.353 272.531 144.14 272.328C143.937 272.115 143.772 271.869 143.644 271.592C143.526 271.304 143.468 271 143.468 270.68V262.6H144.348V270.68C144.348 271.032 144.47 271.336 144.716 271.592C144.972 271.837 145.276 271.96 145.628 271.96H146.428C146.492 271.96 146.545 271.987 146.588 272.04C146.63 272.083 146.652 272.136 146.652 272.2V272.776ZM150.198 271.96H152.678V269.688C152.678 269.368 152.566 269.101 152.342 268.888C152.118 268.664 151.846 268.552 151.526 268.552H150.566C150.289 268.552 150.043 268.637 149.83 268.808C149.627 268.979 149.499 269.197 149.446 269.464L149.206 270.76C149.174 270.92 149.179 271.075 149.222 271.224C149.265 271.363 149.329 271.491 149.414 271.608C149.51 271.715 149.622 271.8 149.75 271.864C149.889 271.928 150.038 271.96 150.198 271.96ZM148.294 270.84L148.614 269.192C148.657 268.957 148.737 268.744 148.854 268.552C148.971 268.36 149.115 268.195 149.286 268.056C149.467 267.907 149.665 267.795 149.878 267.72C150.091 267.635 150.315 267.592 150.55 267.592H151.446C151.734 267.592 152.006 267.651 152.262 267.768C152.518 267.875 152.742 268.024 152.934 268.216C153.126 268.397 153.275 268.616 153.382 268.872C153.499 269.128 153.558 269.4 153.558 269.688V271.736C153.558 272.131 153.446 272.44 153.222 272.664C152.998 272.888 152.683 273 152.278 273H150.278C149.937 273 149.622 272.915 149.334 272.744C149.046 272.573 148.827 272.296 148.678 271.912C148.497 272.296 148.241 272.573 147.91 272.744C147.59 272.915 147.254 273 146.902 273H146.422C146.273 273 146.198 272.925 146.198 272.776V272.184C146.198 272.131 146.219 272.083 146.262 272.04C146.305 271.987 146.358 271.96 146.422 271.96H146.934C147.265 271.96 147.558 271.853 147.814 271.64C148.081 271.427 148.241 271.16 148.294 270.84ZM156.117 273H155.237V263.896H156.117V273ZM153.317 263.48V262.952C153.317 262.643 153.418 262.376 153.621 262.152C153.813 261.917 154.096 261.8 154.469 261.8H157.429V262.6H154.389C154.282 262.6 154.186 262.643 154.101 262.728C154.016 262.813 153.973 262.915 153.973 263.032V263.48H153.317ZM160.936 272.728V268.584H161.816V272.568C161.816 272.867 161.87 273.149 161.976 273.416C162.094 273.683 162.254 273.912 162.456 274.104C162.659 274.307 162.894 274.467 163.16 274.584C163.427 274.701 163.71 274.76 164.008 274.76H166.76C167.016 274.76 167.256 274.712 167.48 274.616C167.704 274.52 167.902 274.387 168.072 274.216C168.243 274.045 168.376 273.848 168.472 273.624C168.568 273.4 168.616 273.16 168.616 272.904V268.312H169.496V270.632C169.496 270.877 169.534 271.085 169.608 271.256C169.694 271.427 169.8 271.565 169.928 271.672C170.067 271.768 170.222 271.843 170.392 271.896C170.574 271.939 170.755 271.96 170.936 271.96H171.736C171.886 271.96 171.96 272.035 171.96 272.184V272.776C171.96 272.829 171.939 272.883 171.896 272.936C171.854 272.979 171.8 273 171.736 273H170.936C170.659 273 170.387 272.941 170.12 272.824C169.854 272.696 169.646 272.525 169.496 272.312V273.064C169.496 273.448 169.422 273.805 169.272 274.136C169.134 274.467 168.942 274.755 168.696 275C168.451 275.245 168.158 275.437 167.816 275.576C167.486 275.725 167.134 275.8 166.76 275.8H164.008C163.582 275.8 163.182 275.72 162.808 275.56C162.435 275.4 162.11 275.181 161.832 274.904C161.555 274.627 161.336 274.301 161.176 273.928C161.016 273.555 160.936 273.155 160.936 272.728ZM164.616 267.096H165.816V268.296H164.616V267.096ZM172.886 266.392H174.086V265.192H172.886V266.392ZM174.918 266.392H176.118V265.192H174.918V266.392ZM177.334 272.776C177.334 272.925 177.26 273 177.11 273H176.182C176.001 273 175.82 272.973 175.638 272.92C175.457 272.867 175.286 272.792 175.126 272.696C174.966 272.6 174.828 272.488 174.71 272.36C174.593 272.221 174.513 272.072 174.47 271.912C174.278 272.232 174.017 272.493 173.686 272.696C173.366 272.899 173.02 273 172.646 273H171.734C171.585 273 171.51 272.925 171.51 272.776V272.184C171.51 272.035 171.585 271.96 171.734 271.96H172.646C172.988 271.96 173.286 271.853 173.542 271.64C173.798 271.427 173.958 271.16 174.022 270.84L174.502 268.424L175.366 268.568L174.966 270.584C174.934 270.765 174.945 270.941 174.998 271.112C175.052 271.272 175.132 271.416 175.238 271.544C175.356 271.672 175.494 271.773 175.654 271.848C175.825 271.923 176.006 271.96 176.198 271.96H177.11C177.26 271.96 177.334 272.035 177.334 272.184V272.776ZM180.885 271.96H183.365V269.688C183.365 269.368 183.253 269.101 183.029 268.888C182.805 268.664 182.533 268.552 182.213 268.552H181.253C180.976 268.552 180.731 268.637 180.517 268.808C180.315 268.979 180.187 269.197 180.133 269.464L179.893 270.76C179.861 270.92 179.867 271.075 179.909 271.224C179.952 271.363 180.016 271.491 180.101 271.608C180.197 271.715 180.309 271.8 180.437 271.864C180.576 271.928 180.725 271.96 180.885 271.96ZM178.981 270.84L179.301 269.192C179.344 268.957 179.424 268.744 179.541 268.552C179.659 268.36 179.803 268.195 179.973 268.056C180.155 267.907 180.352 267.795 180.565 267.72C180.779 267.635 181.003 267.592 181.237 267.592H182.133C182.421 267.592 182.693 267.651 182.949 267.768C183.205 267.875 183.429 268.024 183.621 268.216C183.813 268.397 183.963 268.616 184.069 268.872C184.187 269.128 184.245 269.4 184.245 269.688V271.736C184.245 272.131 184.133 272.44 183.909 272.664C183.685 272.888 183.371 273 182.965 273H180.965C180.624 273 180.309 272.915 180.021 272.744C179.733 272.573 179.515 272.296 179.365 271.912C179.184 272.296 178.928 272.573 178.597 272.744C178.277 272.915 177.941 273 177.589 273H177.109C176.96 273 176.885 272.925 176.885 272.776V272.184C176.885 272.131 176.907 272.083 176.949 272.04C176.992 271.987 177.045 271.96 177.109 271.96H177.621C177.952 271.96 178.245 271.853 178.501 271.64C178.768 271.427 178.928 271.16 178.981 270.84ZM194.588 267.592C194.876 267.592 195.148 267.645 195.404 267.752C195.66 267.859 195.884 268.008 196.076 268.2C196.268 268.392 196.417 268.616 196.524 268.872C196.641 269.128 196.7 269.4 196.7 269.688V271.736C196.7 272.131 196.588 272.44 196.364 272.664C196.14 272.888 195.83 273 195.436 273H193.42C193.11 273 192.822 272.936 192.556 272.808C192.3 272.669 192.081 272.493 191.9 272.28C191.718 272.067 191.59 271.816 191.516 271.528C191.441 271.24 191.43 270.947 191.484 270.648L191.868 268.552H190.972C190.609 268.552 190.3 268.691 190.044 268.968C189.798 269.245 189.676 269.565 189.676 269.928V276.936H188.796V269.928C188.796 269.608 188.854 269.304 188.972 269.016C189.1 268.728 189.27 268.483 189.484 268.28C189.697 268.067 189.942 267.901 190.22 267.784C190.508 267.656 190.812 267.592 191.132 267.592H194.588ZM195.82 271.96V269.672C195.82 269.363 195.708 269.101 195.484 268.888C195.26 268.664 194.993 268.552 194.684 268.552H192.748L192.348 270.76C192.294 271.069 192.353 271.347 192.524 271.592C192.705 271.837 192.982 271.96 193.356 271.96H195.82ZM200.838 273C200.529 273 200.241 272.936 199.974 272.808C199.718 272.669 199.5 272.493 199.318 272.28C199.137 272.067 199.009 271.816 198.934 271.528C198.86 271.24 198.849 270.947 198.902 270.648L199.174 269.192C199.217 268.957 199.297 268.744 199.414 268.552C199.532 268.36 199.676 268.195 199.846 268.056C200.028 267.907 200.225 267.795 200.438 267.72C200.652 267.635 200.876 267.592 201.11 267.592H202.006C202.294 267.592 202.566 267.651 202.822 267.768C203.078 267.875 203.302 268.024 203.494 268.216C203.686 268.397 203.836 268.616 203.942 268.872C204.06 269.128 204.118 269.4 204.118 269.688V271.96H205.43C205.494 271.96 205.548 271.987 205.59 272.04C205.633 272.083 205.654 272.131 205.654 272.184V272.776C205.654 272.925 205.58 273 205.43 273H204.102V273.16C204.102 273.523 204.049 273.875 203.942 274.216C203.836 274.557 203.681 274.867 203.478 275.144C203.276 275.432 203.03 275.683 202.742 275.896C202.465 276.109 202.156 276.275 201.814 276.392L200.102 276.968L199.814 276.056L201.622 275.448C202.102 275.288 202.486 275.005 202.774 274.6C203.073 274.205 203.222 273.752 203.222 273.24V272.888C203.073 272.963 202.892 273 202.678 273H200.838ZM200.758 271.96H203.238V269.688C203.238 269.368 203.126 269.101 202.902 268.888C202.678 268.664 202.406 268.552 202.086 268.552H201.126C200.849 268.552 200.604 268.637 200.39 268.808C200.188 268.979 200.06 269.197 200.006 269.464L199.766 270.76C199.734 270.92 199.74 271.075 199.782 271.224C199.825 271.363 199.889 271.491 199.974 271.608C200.07 271.715 200.182 271.8 200.31 271.864C200.449 271.928 200.598 271.96 200.758 271.96ZM209.726 273C209.331 273 208.968 272.909 208.638 272.728C208.307 272.536 208.035 272.259 207.822 271.896C207.608 272.259 207.336 272.536 207.006 272.728C206.675 272.909 206.312 273 205.918 273H205.438C205.373 273 205.32 272.979 205.277 272.936C205.235 272.883 205.213 272.829 205.213 272.776V272.184C205.213 272.035 205.288 271.96 205.438 271.96H206.078C206.43 271.96 206.734 271.832 206.99 271.576C207.246 271.32 207.374 271.016 207.374 270.664V268.296H208.254V270.696C208.254 271.048 208.382 271.347 208.638 271.592C208.894 271.837 209.192 271.96 209.534 271.96H209.758C210.099 271.96 210.398 271.853 210.654 271.64C210.92 271.427 211.086 271.155 211.15 270.824L211.614 268.424L212.494 268.568L212.094 270.568C212.062 270.76 212.072 270.941 212.126 271.112C212.179 271.272 212.264 271.416 212.382 271.544C212.499 271.672 212.643 271.773 212.814 271.848C212.995 271.923 213.192 271.96 213.406 271.96H213.47C213.822 271.96 214.12 271.832 214.366 271.576C214.622 271.32 214.75 271.016 214.75 270.664V267.816H215.63V270.76C215.662 271.101 215.8 271.389 216.046 271.624C216.291 271.848 216.584 271.96 216.926 271.96H217.566C217.619 271.96 217.667 271.981 217.71 272.024C217.763 272.067 217.79 272.12 217.79 272.184V272.776C217.79 272.829 217.768 272.883 217.726 272.936C217.683 272.979 217.63 273 217.566 273H217.086C216.691 273 216.328 272.909 215.998 272.728C215.678 272.536 215.411 272.259 215.198 271.896C214.984 272.259 214.712 272.536 214.382 272.728C214.051 272.909 213.694 273 213.31 273C212.936 273 212.59 272.909 212.27 272.728C211.96 272.547 211.731 272.269 211.582 271.896C211.368 272.269 211.096 272.547 210.766 272.728C210.446 272.909 210.099 273 209.726 273ZM218.683 276.12H219.883V274.92H218.683V276.12ZM220.715 276.12H221.915V274.92H220.715V276.12ZM219.739 277.912H220.939V276.712H219.739V277.912ZM223.163 272.776C223.163 272.925 223.088 273 222.939 273H222.011C221.829 273 221.648 272.973 221.467 272.92C221.285 272.867 221.115 272.792 220.955 272.696C220.795 272.6 220.656 272.488 220.539 272.36C220.421 272.221 220.341 272.072 220.299 271.912C220.107 272.232 219.845 272.493 219.515 272.696C219.195 272.899 218.848 273 218.475 273H217.562C217.413 273 217.338 272.925 217.338 272.776V272.184C217.338 272.035 217.413 271.96 217.562 271.96H218.475C218.816 271.96 219.115 271.853 219.371 271.64C219.627 271.427 219.787 271.16 219.851 270.84L220.331 268.424L221.195 268.568L220.795 270.584C220.763 270.765 220.773 270.941 220.827 271.112C220.88 271.272 220.96 271.416 221.067 271.544C221.184 271.672 221.323 271.773 221.483 271.848C221.653 271.923 221.835 271.96 222.027 271.96H222.939C223.088 271.96 223.163 272.035 223.163 272.184V272.776ZM224.618 271.96C224.97 271.96 225.268 271.837 225.514 271.592C225.77 271.336 225.898 271.032 225.898 270.68V267.864H226.778V270.68C226.778 271 226.714 271.304 226.586 271.592C226.468 271.869 226.303 272.115 226.09 272.328C225.887 272.531 225.642 272.696 225.354 272.824C225.076 272.941 224.778 273 224.458 273H222.938C222.788 273 222.713 272.925 222.713 272.776V272.2C222.713 272.136 222.735 272.083 222.777 272.04C222.82 271.987 222.873 271.96 222.938 271.96H224.618ZM222.938 276.12H224.138V274.92H222.938V276.12ZM224.97 276.12H226.17V274.92H224.97V276.12ZM230.223 273H229.343V262.6H230.223V273ZM240.65 267.592C240.938 267.592 241.21 267.645 241.466 267.752C241.722 267.859 241.946 268.008 242.138 268.2C242.33 268.392 242.479 268.616 242.586 268.872C242.703 269.128 242.762 269.4 242.762 269.688V271.736C242.762 272.131 242.65 272.44 242.426 272.664C242.202 272.888 241.893 273 241.498 273H239.482C239.173 273 238.885 272.936 238.618 272.808C238.362 272.669 238.143 272.493 237.962 272.28C237.781 272.067 237.653 271.816 237.578 271.528C237.503 271.24 237.493 270.947 237.546 270.648L237.93 268.552H237.034C236.671 268.552 236.362 268.691 236.106 268.968C235.861 269.245 235.738 269.565 235.738 269.928V276.936H234.858V269.928C234.858 269.608 234.917 269.304 235.034 269.016C235.162 268.728 235.333 268.483 235.546 268.28C235.759 268.067 236.005 267.901 236.282 267.784C236.57 267.656 236.874 267.592 237.194 267.592H240.65ZM241.882 271.96V269.672C241.882 269.363 241.77 269.101 241.546 268.888C241.322 268.664 241.055 268.552 240.746 268.552H238.81L238.41 270.76C238.357 271.069 238.415 271.347 238.586 271.592C238.767 271.837 239.045 271.96 239.418 271.96H241.882ZM242.007 276.952L241.719 276.04L243.543 275.448C244.023 275.288 244.407 275.005 244.695 274.6C244.983 274.195 245.127 273.736 245.127 273.224V268.312H246.007V273.16C246.007 273.523 245.954 273.869 245.847 274.2C245.741 274.541 245.586 274.851 245.383 275.128C245.181 275.405 244.935 275.651 244.647 275.864C244.37 276.088 244.061 276.259 243.719 276.376L242.007 276.952ZM250.385 273C250.076 273 249.788 272.936 249.521 272.808C249.265 272.669 249.047 272.493 248.865 272.28C248.684 272.067 248.556 271.816 248.481 271.528C248.407 271.24 248.396 270.947 248.449 270.648L248.721 269.192C248.764 268.957 248.844 268.744 248.961 268.552C249.079 268.36 249.223 268.195 249.393 268.056C249.575 267.907 249.772 267.795 249.985 267.72C250.199 267.635 250.423 267.592 250.657 267.592H251.553C251.841 267.592 252.113 267.651 252.369 267.768C252.625 267.875 252.849 268.024 253.041 268.216C253.233 268.397 253.383 268.616 253.489 268.872C253.607 269.128 253.665 269.4 253.665 269.688V271.96H254.977C255.041 271.96 255.095 271.987 255.137 272.04C255.18 272.083 255.201 272.131 255.201 272.184V272.776C255.201 272.925 255.127 273 254.977 273H253.649V273.16C253.649 273.523 253.596 273.875 253.489 274.216C253.383 274.557 253.228 274.867 253.025 275.144C252.823 275.432 252.577 275.683 252.289 275.896C252.012 276.109 251.703 276.275 251.361 276.392L249.649 276.968L249.361 276.056L251.169 275.448C251.649 275.288 252.033 275.005 252.321 274.6C252.62 274.205 252.769 273.752 252.769 273.24V272.888C252.62 272.963 252.439 273 252.225 273H250.385ZM250.305 271.96H252.785V269.688C252.785 269.368 252.673 269.101 252.449 268.888C252.225 268.664 251.953 268.552 251.633 268.552H250.673C250.396 268.552 250.151 268.637 249.937 268.808C249.735 268.979 249.607 269.197 249.553 269.464L249.313 270.76C249.281 270.92 249.287 271.075 249.329 271.224C249.372 271.363 249.436 271.491 249.521 271.608C249.617 271.715 249.729 271.8 249.857 271.864C249.996 271.928 250.145 271.96 250.305 271.96ZM254.76 272.184C254.76 272.035 254.835 271.96 254.984 271.96H255.944C256.296 271.96 256.6 271.837 256.856 271.592C257.112 271.336 257.24 271.027 257.24 270.664V262.6H258.12V270.664C258.12 270.984 258.056 271.288 257.928 271.576C257.811 271.864 257.646 272.115 257.432 272.328C257.219 272.531 256.968 272.696 256.68 272.824C256.403 272.941 256.104 273 255.784 273H254.984C254.835 273 254.76 272.925 254.76 272.776V272.184ZM82.3709 297H81.4909V286.6H82.3709V297ZM86.5962 297C86.2869 297 85.9989 296.936 85.7322 296.808C85.4762 296.669 85.2575 296.493 85.0762 296.28C84.8949 296.067 84.7669 295.816 84.6922 295.528C84.6175 295.24 84.6069 294.947 84.6602 294.648L84.9322 293.192C84.9749 292.957 85.0549 292.744 85.1722 292.552C85.2895 292.36 85.4335 292.195 85.6042 292.056C85.7855 291.907 85.9829 291.795 86.1962 291.72C86.4095 291.635 86.6335 291.592 86.8682 291.592H87.7642C88.0522 291.592 88.3242 291.651 88.5802 291.768C88.8362 291.875 89.0602 292.024 89.2522 292.216C89.4442 292.397 89.5935 292.616 89.7002 292.872C89.8175 293.128 89.8762 293.4 89.8762 293.688V295.96H91.1882C91.2522 295.96 91.3055 295.987 91.3482 296.04C91.3909 296.083 91.4122 296.131 91.4122 296.184V296.776C91.4122 296.925 91.3375 297 91.1882 297H89.8602V297.16C89.8602 297.523 89.8069 297.875 89.7002 298.216C89.5935 298.557 89.4389 298.867 89.2362 299.144C89.0335 299.432 88.7882 299.683 88.5002 299.896C88.2229 300.109 87.9135 300.275 87.5722 300.392L85.8602 300.968L85.5722 300.056L87.3802 299.448C87.8602 299.288 88.2442 299.005 88.5322 298.6C88.8309 298.205 88.9802 297.752 88.9802 297.24V296.888C88.8309 296.963 88.6495 297 88.4362 297H86.5962ZM86.5162 295.96H88.9962V293.688C88.9962 293.368 88.8842 293.101 88.6602 292.888C88.4362 292.664 88.1642 292.552 87.8442 292.552H86.8842C86.6069 292.552 86.3615 292.637 86.1482 292.808C85.9455 292.979 85.8175 293.197 85.7642 293.464L85.5242 294.76C85.4922 294.92 85.4975 295.075 85.5402 295.224C85.5829 295.363 85.6469 295.491 85.7322 295.608C85.8282 295.715 85.9402 295.8 86.0682 295.864C86.2069 295.928 86.3562 295.96 86.5162 295.96ZM92.3473 290.392H93.5473V289.192H92.3473V290.392ZM94.3793 290.392H95.5793V289.192H94.3793V290.392ZM96.7953 296.776C96.7953 296.925 96.7206 297 96.5713 297H95.6433C95.462 297 95.2806 296.973 95.0993 296.92C94.918 296.867 94.7473 296.792 94.5873 296.696C94.4273 296.6 94.2886 296.488 94.1713 296.36C94.054 296.221 93.974 296.072 93.9313 295.912C93.7393 296.232 93.478 296.493 93.1473 296.696C92.8273 296.899 92.4806 297 92.1073 297H91.1953C91.046 297 90.9713 296.925 90.9713 296.776V296.184C90.9713 296.035 91.046 295.96 91.1953 295.96H92.1073C92.4486 295.96 92.7473 295.853 93.0033 295.64C93.2593 295.427 93.4193 295.16 93.4833 294.84L93.9633 292.424L94.8273 292.568L94.4273 294.584C94.3953 294.765 94.406 294.941 94.4593 295.112C94.5126 295.272 94.5926 295.416 94.6993 295.544C94.8166 295.672 94.9553 295.773 95.1153 295.848C95.286 295.923 95.4673 295.96 95.6593 295.96H96.5713C96.7206 295.96 96.7953 296.035 96.7953 296.184V296.776ZM96.5703 297C96.421 297 96.3463 296.925 96.3463 296.776V296.184C96.3463 296.131 96.3676 296.083 96.4103 296.04C96.453 295.987 96.5063 295.96 96.5703 295.96H99.0823C99.6156 295.96 100.122 295.869 100.602 295.688C101.093 295.496 101.536 295.229 101.93 294.888L103.514 293.48C103.568 293.427 103.632 293.373 103.706 293.32C103.781 293.256 103.845 293.213 103.898 293.192L99.8663 292.008C99.6316 291.933 99.4023 291.965 99.1783 292.104C98.965 292.243 98.8263 292.424 98.7623 292.648L98.4103 293.816L97.6423 293.608L97.9943 292.408C98.0583 292.173 98.165 291.965 98.3143 291.784C98.4743 291.603 98.6556 291.459 98.8583 291.352C99.061 291.235 99.2796 291.16 99.5143 291.128C99.749 291.096 99.9836 291.117 100.218 291.192L106.33 293.032L106.09 293.848L105.482 293.672C105.312 293.619 105.157 293.597 105.018 293.608C104.89 293.608 104.773 293.629 104.666 293.672C104.57 293.715 104.474 293.773 104.378 293.848C104.293 293.912 104.208 293.981 104.122 294.056V294.664C104.122 295.027 104.245 295.336 104.49 295.592C104.746 295.837 105.056 295.96 105.418 295.96H107.53C107.594 295.96 107.648 295.987 107.69 296.04C107.733 296.083 107.754 296.131 107.754 296.184V296.776C107.754 296.925 107.68 297 107.53 297H105.578C105.258 297 104.965 296.941 104.698 296.824C104.432 296.707 104.197 296.547 103.994 296.344C103.802 296.131 103.648 295.891 103.53 295.624C103.424 295.347 103.365 295.048 103.354 294.728L102.09 295.864C101.674 296.237 101.205 296.52 100.682 296.712C100.17 296.904 99.637 297 99.0823 297H96.5703ZM111.299 295.96H113.779V293.688C113.779 293.368 113.667 293.101 113.443 292.888C113.219 292.664 112.947 292.552 112.627 292.552H111.667C111.39 292.552 111.145 292.637 110.931 292.808C110.729 292.979 110.601 293.197 110.547 293.464L110.307 294.76C110.275 294.92 110.281 295.075 110.323 295.224C110.366 295.363 110.43 295.491 110.515 295.608C110.611 295.715 110.723 295.8 110.851 295.864C110.99 295.928 111.139 295.96 111.299 295.96ZM109.395 294.84L109.715 293.192C109.758 292.957 109.838 292.744 109.955 292.552C110.073 292.36 110.217 292.195 110.387 292.056C110.569 291.907 110.766 291.795 110.979 291.72C111.193 291.635 111.417 291.592 111.651 291.592H112.547C112.835 291.592 113.107 291.651 113.363 291.768C113.619 291.875 113.843 292.024 114.035 292.216C114.227 292.397 114.377 292.616 114.483 292.872C114.601 293.128 114.659 293.4 114.659 293.688V295.736C114.659 296.131 114.547 296.44 114.323 296.664C114.099 296.888 113.785 297 113.379 297H111.379C111.038 297 110.723 296.915 110.435 296.744C110.147 296.573 109.929 296.296 109.779 295.912C109.598 296.296 109.342 296.573 109.011 296.744C108.691 296.915 108.355 297 108.003 297H107.523C107.374 297 107.299 296.925 107.299 296.776V296.184C107.299 296.131 107.321 296.083 107.363 296.04C107.406 295.987 107.459 295.96 107.523 295.96H108.035C108.366 295.96 108.659 295.853 108.915 295.64C109.182 295.427 109.342 295.16 109.395 294.84ZM126.89 295.96H127.194C127.258 295.96 127.311 295.987 127.354 296.04C127.396 296.083 127.418 296.136 127.418 296.2V296.776C127.418 296.925 127.343 297 127.194 297H126.89C126.484 297 126.116 296.893 125.786 296.68C125.455 296.456 125.194 296.125 125.002 295.688C124.81 296.115 124.532 296.44 124.17 296.664C123.807 296.888 123.423 297 123.018 297H120.794C120.346 297 119.967 296.845 119.658 296.536C119.359 296.227 119.21 295.848 119.21 295.4V293.832H119.962V295.16C119.962 295.373 120.02 295.56 120.138 295.72C120.266 295.88 120.452 295.96 120.698 295.96H123.018C123.263 295.96 123.482 295.907 123.674 295.8C123.876 295.693 124.042 295.555 124.17 295.384C124.308 295.203 124.399 295.005 124.442 294.792C124.495 294.579 124.49 294.36 124.426 294.136L123.274 289.928L124.106 289.624L125.578 294.936C125.663 295.235 125.823 295.48 126.058 295.672C126.303 295.864 126.58 295.96 126.89 295.96ZM128.299 300.12H129.499V298.92H128.299V300.12ZM130.331 300.12H131.531V298.92H130.331V300.12ZM132.795 296.776C132.795 296.925 132.721 297 132.571 297H131.643C131.462 297 131.281 296.973 131.099 296.92C130.918 296.867 130.747 296.792 130.587 296.696C130.427 296.6 130.289 296.488 130.171 296.36C130.054 296.221 129.974 296.072 129.931 295.912C129.739 296.232 129.478 296.493 129.147 296.696C128.827 296.899 128.481 297 128.107 297H127.195C127.046 297 126.971 296.925 126.971 296.776V296.184C126.971 296.035 127.046 295.96 127.195 295.96H128.107C128.449 295.96 128.747 295.853 129.003 295.64C129.259 295.427 129.419 295.16 129.483 294.84L129.963 292.424L130.827 292.568L130.427 294.584C130.395 294.765 130.406 294.941 130.459 295.112C130.513 295.272 130.593 295.416 130.699 295.544C130.817 295.672 130.955 295.773 131.115 295.848C131.286 295.923 131.467 295.96 131.659 295.96H132.571C132.721 295.96 132.795 296.035 132.795 296.184V296.776ZM132.346 296.184C132.346 296.035 132.421 295.96 132.57 295.96H133.53C133.882 295.96 134.186 295.837 134.442 295.592C134.698 295.336 134.826 295.027 134.826 294.664V286.6H135.706V294.664C135.706 294.984 135.642 295.288 135.514 295.576C135.397 295.864 135.232 296.115 135.018 296.328C134.805 296.531 134.554 296.696 134.266 296.824C133.989 296.941 133.69 297 133.37 297H132.57C132.421 297 132.346 296.925 132.346 296.776V296.184ZM139.846 297C139.537 297 139.249 296.936 138.982 296.808C138.726 296.669 138.508 296.493 138.326 296.28C138.145 296.067 138.017 295.816 137.942 295.528C137.868 295.24 137.857 294.947 137.91 294.648L138.182 293.192C138.225 292.957 138.305 292.744 138.422 292.552C138.54 292.36 138.684 292.195 138.854 292.056C139.036 291.907 139.233 291.795 139.446 291.72C139.66 291.635 139.884 291.592 140.118 291.592H141.014C141.302 291.592 141.574 291.651 141.83 291.768C142.086 291.875 142.31 292.024 142.502 292.216C142.694 292.397 142.844 292.616 142.95 292.872C143.068 293.128 143.126 293.4 143.126 293.688V295.96H144.438C144.502 295.96 144.556 295.987 144.598 296.04C144.641 296.083 144.662 296.131 144.662 296.184V296.776C144.662 296.925 144.588 297 144.438 297H143.11V297.16C143.11 297.523 143.057 297.875 142.95 298.216C142.844 298.557 142.689 298.867 142.486 299.144C142.284 299.432 142.038 299.683 141.75 299.896C141.473 300.109 141.164 300.275 140.822 300.392L139.11 300.968L138.822 300.056L140.63 299.448C141.11 299.288 141.494 299.005 141.782 298.6C142.081 298.205 142.23 297.752 142.23 297.24V296.888C142.081 296.963 141.9 297 141.686 297H139.846ZM139.766 295.96H142.246V293.688C142.246 293.368 142.134 293.101 141.91 292.888C141.686 292.664 141.414 292.552 141.094 292.552H140.134C139.857 292.552 139.612 292.637 139.398 292.808C139.196 292.979 139.068 293.197 139.014 293.464L138.774 294.76C138.742 294.92 138.748 295.075 138.79 295.224C138.833 295.363 138.897 295.491 138.982 295.608C139.078 295.715 139.19 295.8 139.318 295.864C139.457 295.928 139.606 295.96 139.766 295.96ZM146.125 295.96C146.477 295.96 146.776 295.837 147.021 295.592C147.277 295.336 147.405 295.032 147.405 294.68V291.864H148.285V294.68C148.285 295 148.221 295.304 148.093 295.592C147.976 295.869 147.811 296.115 147.597 296.328C147.395 296.531 147.149 296.696 146.861 296.824C146.584 296.941 146.285 297 145.965 297H144.445C144.296 297 144.221 296.925 144.221 296.776V296.2C144.221 296.136 144.243 296.083 144.285 296.04C144.328 295.987 144.381 295.96 144.445 295.96H146.125ZM145.037 289.848H146.237V288.648H145.037V289.848ZM147.069 289.848H148.269V288.648H147.069V289.848ZM156.387 294.76C156.333 295.069 156.397 295.347 156.579 295.592C156.76 295.837 157.032 295.96 157.395 295.96H159.859V293.672C159.859 293.363 159.747 293.096 159.523 292.872C159.299 292.648 159.027 292.536 158.707 292.536H156.787L156.387 294.76ZM157.459 297C157.149 297 156.861 296.936 156.595 296.808C156.339 296.669 156.12 296.493 155.939 296.28C155.757 296.067 155.629 295.816 155.555 295.528C155.48 295.24 155.469 294.947 155.523 294.648L155.907 292.536H155.011C154.829 292.536 154.659 292.579 154.499 292.664C154.349 292.739 154.216 292.84 154.099 292.968C153.981 293.096 153.885 293.245 153.811 293.416C153.747 293.576 153.715 293.747 153.715 293.928V300.936H152.835V293.928C152.835 293.608 152.893 293.304 153.011 293.016C153.139 292.728 153.309 292.477 153.523 292.264C153.736 292.051 153.981 291.885 154.259 291.768C154.547 291.64 154.851 291.576 155.171 291.576H158.627C158.915 291.576 159.187 291.635 159.443 291.752C159.699 291.859 159.923 292.008 160.115 292.2C160.307 292.392 160.456 292.616 160.563 292.872C160.68 293.128 160.739 293.4 160.739 293.688V294.664C160.739 295.027 160.867 295.336 161.123 295.592C161.379 295.837 161.683 295.96 162.035 295.96H163.427C163.576 295.96 163.651 296.035 163.651 296.184V296.776C163.651 296.829 163.629 296.883 163.587 296.936C163.544 296.979 163.491 297 163.427 297H162.195C161.885 297 161.576 296.936 161.267 296.808C160.968 296.669 160.723 296.456 160.531 296.168C160.477 296.509 160.355 296.733 160.163 296.84C159.981 296.947 159.752 297 159.475 297H157.459ZM164.582 290.392H165.782V289.192H164.582V290.392ZM166.614 290.392H167.814V289.192H166.614V290.392ZM169.03 296.776C169.03 296.925 168.955 297 168.806 297H167.878C167.696 297 167.515 296.973 167.334 296.92C167.152 296.867 166.982 296.792 166.822 296.696C166.662 296.6 166.523 296.488 166.406 296.36C166.288 296.221 166.208 296.072 166.166 295.912C165.974 296.232 165.712 296.493 165.382 296.696C165.062 296.899 164.715 297 164.342 297H163.43C163.28 297 163.206 296.925 163.206 296.776V296.184C163.206 296.035 163.28 295.96 163.43 295.96H164.342C164.683 295.96 164.982 295.853 165.238 295.64C165.494 295.427 165.654 295.16 165.718 294.84L166.198 292.424L167.062 292.568L166.662 294.584C166.63 294.765 166.64 294.941 166.694 295.112C166.747 295.272 166.827 295.416 166.934 295.544C167.051 295.672 167.19 295.773 167.35 295.848C167.52 295.923 167.702 295.96 167.894 295.96H168.806C168.955 295.96 169.03 296.035 169.03 296.184V296.776ZM173.093 297C172.698 297 172.335 296.909 172.005 296.728C171.674 296.536 171.402 296.259 171.189 295.896C170.975 296.259 170.703 296.536 170.373 296.728C170.042 296.909 169.679 297 169.285 297H168.805C168.741 297 168.687 296.979 168.645 296.936C168.602 296.883 168.581 296.829 168.581 296.776V296.184C168.581 296.035 168.655 295.96 168.805 295.96H169.445C169.797 295.96 170.101 295.832 170.357 295.576C170.613 295.32 170.741 295.016 170.741 294.664V292.296H171.621V294.696C171.621 295.048 171.749 295.347 172.005 295.592C172.261 295.837 172.559 295.96 172.901 295.96H173.125C173.466 295.96 173.765 295.853 174.021 295.64C174.287 295.427 174.453 295.155 174.517 294.824L174.981 292.424L175.861 292.568L175.461 294.568C175.429 294.76 175.439 294.941 175.493 295.112C175.546 295.272 175.631 295.416 175.749 295.544C175.866 295.672 176.01 295.773 176.181 295.848C176.362 295.923 176.559 295.96 176.773 295.96H176.837C177.189 295.96 177.487 295.832 177.733 295.576C177.989 295.32 178.117 295.016 178.117 294.664V291.816H178.997V294.76C179.029 295.101 179.167 295.389 179.413 295.624C179.658 295.848 179.951 295.96 180.293 295.96H180.933C180.986 295.96 181.034 295.981 181.077 296.024C181.13 296.067 181.157 296.12 181.157 296.184V296.776C181.157 296.829 181.135 296.883 181.093 296.936C181.05 296.979 180.997 297 180.933 297H180.453C180.058 297 179.695 296.909 179.365 296.728C179.045 296.536 178.778 296.259 178.565 295.896C178.351 296.259 178.079 296.536 177.749 296.728C177.418 296.909 177.061 297 176.677 297C176.303 297 175.957 296.909 175.637 296.728C175.327 296.547 175.098 296.269 174.949 295.896C174.735 296.269 174.463 296.547 174.133 296.728C173.813 296.909 173.466 297 173.093 297ZM182.034 300.12H183.234V298.92H182.034V300.12ZM184.066 300.12H185.266V298.92H184.066V300.12ZM186.53 296.776C186.53 296.925 186.455 297 186.306 297H185.378C185.196 297 185.015 296.973 184.834 296.92C184.652 296.867 184.482 296.792 184.322 296.696C184.162 296.6 184.023 296.488 183.906 296.36C183.788 296.221 183.708 296.072 183.666 295.912C183.474 296.232 183.212 296.493 182.882 296.696C182.562 296.899 182.215 297 181.842 297H180.93C180.78 297 180.706 296.925 180.706 296.776V296.184C180.706 296.035 180.78 295.96 180.93 295.96H181.842C182.183 295.96 182.482 295.853 182.738 295.64C182.994 295.427 183.154 295.16 183.218 294.84L183.698 292.424L184.562 292.568L184.162 294.584C184.13 294.765 184.14 294.941 184.194 295.112C184.247 295.272 184.327 295.416 184.434 295.544C184.551 295.672 184.69 295.773 184.85 295.848C185.02 295.923 185.202 295.96 185.394 295.96H186.306C186.455 295.96 186.53 296.035 186.53 296.184V296.776ZM190.513 297C190.129 297 189.771 296.909 189.441 296.728C189.121 296.536 188.854 296.264 188.641 295.912C188.438 296.264 188.171 296.536 187.841 296.728C187.521 296.909 187.163 297 186.769 297H186.305C186.155 297 186.081 296.925 186.081 296.776V296.184C186.081 296.035 186.155 295.96 186.305 295.96H186.929C187.281 295.96 187.579 295.837 187.825 295.592C188.081 295.336 188.209 295.027 188.209 294.664V292.296H189.089V294.696C189.089 295.048 189.211 295.347 189.457 295.592C189.713 295.837 190.011 295.96 190.353 295.96H190.577C190.918 295.96 191.217 295.853 191.473 295.64C191.729 295.427 191.889 295.155 191.953 294.824L192.433 292.424L193.297 292.568L192.897 294.568C192.865 294.76 192.875 294.941 192.929 295.112C192.982 295.272 193.062 295.416 193.169 295.544C193.286 295.672 193.425 295.773 193.585 295.848C193.755 295.923 193.937 295.96 194.129 295.96H195.569V291.832H196.449V295.736C196.449 296.131 196.337 296.44 196.113 296.664C195.889 296.888 195.579 297 195.185 297H194.113C193.75 297 193.409 296.904 193.089 296.712C192.769 296.52 192.534 296.253 192.385 295.912C192.171 296.275 191.899 296.547 191.569 296.728C191.238 296.909 190.886 297 190.513 297ZM199.375 300.952L199.087 300.04L200.911 299.448C201.391 299.288 201.775 299.005 202.063 298.6C202.351 298.195 202.495 297.736 202.495 297.224V292.312H203.375V297.16C203.375 297.523 203.321 297.869 203.215 298.2C203.108 298.541 202.953 298.851 202.751 299.128C202.548 299.405 202.303 299.651 202.015 299.864C201.737 300.088 201.428 300.259 201.087 300.376L199.375 300.952ZM207.528 297C207.08 297 206.702 296.845 206.392 296.536C206.083 296.227 205.928 295.848 205.928 295.4V293.832H206.68V295.176C206.68 295.389 206.739 295.576 206.856 295.736C206.984 295.885 207.171 295.96 207.416 295.96H209.88C210.243 295.96 210.536 295.885 210.76 295.736C210.984 295.587 211.144 295.4 211.24 295.176C211.336 294.952 211.379 294.717 211.368 294.472C211.358 294.216 211.294 293.992 211.176 293.8L209.384 290.6L210.12 290.088L211.848 293.192C212.104 293.651 212.232 294.109 212.232 294.568C212.243 295.016 212.147 295.421 211.944 295.784C211.752 296.147 211.47 296.44 211.096 296.664C210.723 296.888 210.296 297 209.816 297H207.528ZM224.819 294.888C225.129 294.963 225.374 295.101 225.555 295.304C225.737 295.507 225.827 295.763 225.827 296.072V296.744C225.827 297.117 225.753 297.469 225.603 297.8C225.465 298.141 225.273 298.435 225.027 298.68C224.782 298.925 224.494 299.117 224.163 299.256C223.833 299.405 223.481 299.48 223.107 299.48H219.875C219.449 299.48 219.049 299.4 218.675 299.24C218.302 299.08 217.977 298.861 217.699 298.584C217.422 298.307 217.203 297.981 217.043 297.608C216.883 297.235 216.803 296.835 216.803 296.408V292.712H217.683V296.248C217.683 296.547 217.737 296.829 217.843 297.096C217.961 297.363 218.121 297.592 218.323 297.784C218.526 297.987 218.761 298.147 219.027 298.264C219.294 298.381 219.577 298.44 219.875 298.44H223.107C223.363 298.44 223.603 298.392 223.827 298.296C224.051 298.2 224.243 298.067 224.403 297.896C224.574 297.725 224.707 297.528 224.803 297.304C224.899 297.08 224.947 296.84 224.947 296.584V295.88L220.627 294.872V293.24C220.627 292.867 220.691 292.52 220.819 292.2C220.958 291.88 221.139 291.597 221.363 291.352C221.587 291.107 221.843 290.909 222.131 290.76C222.43 290.611 222.739 290.515 223.059 290.472L224.787 290.248L224.915 291.144L222.963 291.416C222.526 291.48 222.169 291.688 221.891 292.04C221.625 292.392 221.491 292.787 221.491 293.224V294.104L224.819 294.888ZM226.593 300.952L226.305 300.04L228.129 299.448C228.609 299.288 228.993 299.005 229.281 298.6C229.569 298.195 229.713 297.736 229.713 297.224V292.312H230.593V297.16C230.593 297.523 230.54 297.869 230.433 298.2C230.327 298.541 230.172 298.851 229.969 299.128C229.767 299.405 229.521 299.651 229.233 299.864C228.956 300.088 228.647 300.259 228.305 300.376L226.593 300.952ZM234.027 297H233.147V286.6H234.027V297ZM244.108 295.96H244.412C244.476 295.96 244.53 295.987 244.572 296.04C244.615 296.083 244.636 296.136 244.636 296.2V296.776C244.636 296.925 244.562 297 244.412 297H244.108C243.703 297 243.335 296.893 243.004 296.68C242.674 296.456 242.412 296.125 242.22 295.688C242.028 296.115 241.751 296.44 241.388 296.664C241.026 296.888 240.642 297 240.236 297H238.012C237.564 297 237.186 296.845 236.876 296.536C236.578 296.227 236.428 295.848 236.428 295.4V293.832H237.18V295.16C237.18 295.373 237.239 295.56 237.356 295.72C237.484 295.88 237.671 295.96 237.916 295.96H240.236C240.482 295.96 240.7 295.907 240.892 295.8C241.095 295.693 241.26 295.555 241.388 295.384C241.527 295.203 241.618 295.005 241.66 294.792C241.714 294.579 241.708 294.36 241.644 294.136L240.492 289.928L241.324 289.624L242.796 294.936C242.882 295.235 243.042 295.48 243.276 295.672C243.522 295.864 243.799 295.96 244.108 295.96ZM240.012 286.408H241.212V287.608H240.012V286.408ZM245.39 290.056L248.446 286.44L248.958 286.872L245.87 290.504L245.39 290.056ZM255.854 294.68C255.854 295.032 255.982 295.336 256.238 295.592C256.494 295.837 256.798 295.96 257.15 295.96H257.63C257.779 295.96 257.854 296.035 257.854 296.184V296.776C257.854 296.829 257.833 296.883 257.79 296.936C257.747 296.979 257.694 297 257.63 297H257.31C256.926 297 256.574 296.909 256.254 296.728C255.934 296.536 255.673 296.264 255.47 295.912C255.289 296.275 255.049 296.547 254.75 296.728C254.451 296.909 254.115 297 253.742 297H244.414C244.35 297 244.297 296.979 244.254 296.936C244.211 296.883 244.19 296.824 244.19 296.76V296.184C244.19 296.035 244.265 295.96 244.414 295.96H253.838C254.147 295.96 254.414 295.848 254.638 295.624C254.862 295.4 254.974 295.133 254.974 294.824V293.768C254.974 293.427 254.857 293.139 254.622 292.904C254.387 292.669 254.099 292.552 253.758 292.552H246.542L245.886 291.944L249.918 287.224L250.558 287.816L247.358 291.592H253.742C254.03 291.592 254.302 291.651 254.558 291.768C254.814 291.875 255.038 292.024 255.23 292.216C255.422 292.408 255.571 292.632 255.678 292.888C255.795 293.144 255.854 293.416 255.854 293.704V294.68ZM259.313 295.96C259.665 295.96 259.963 295.837 260.209 295.592C260.465 295.336 260.593 295.032 260.593 294.68V291.864H261.473V294.68C261.473 295 261.409 295.304 261.281 295.592C261.163 295.869 260.998 296.115 260.785 296.328C260.582 296.531 260.337 296.696 260.049 296.824C259.771 296.941 259.473 297 259.153 297H257.633C257.483 297 257.409 296.925 257.409 296.776V296.2C257.409 296.136 257.43 296.083 257.473 296.04C257.515 295.987 257.569 295.96 257.633 295.96H259.313ZM257.633 300.12H258.833V298.92H257.633V300.12ZM259.665 300.12H260.865V298.92H259.665V300.12ZM267.222 296.776C267.222 296.925 267.147 297 266.998 297H266.358C266.038 297 265.734 296.941 265.446 296.824C265.168 296.696 264.923 296.531 264.71 296.328C264.507 296.115 264.342 295.869 264.214 295.592C264.096 295.304 264.038 295 264.038 294.68V286.6H264.918V294.68C264.918 295.032 265.04 295.336 265.286 295.592C265.542 295.837 265.846 295.96 266.198 295.96H266.998C267.062 295.96 267.115 295.987 267.158 296.04C267.2 296.083 267.222 296.136 267.222 296.2V296.776ZM266.768 296.184C266.768 296.131 266.79 296.083 266.832 296.04C266.875 295.987 266.928 295.96 266.992 295.96H269.504C270.038 295.96 270.544 295.869 271.024 295.688C271.515 295.496 271.958 295.229 272.352 294.888L273.936 293.48C273.99 293.427 274.054 293.373 274.128 293.32C274.203 293.267 274.267 293.224 274.32 293.192L270.288 292.008C270.054 291.933 269.824 291.965 269.6 292.104C269.387 292.243 269.248 292.424 269.184 292.648L268.832 293.816L268.064 293.608L268.416 292.408C268.48 292.173 268.587 291.965 268.736 291.784C268.896 291.603 269.078 291.459 269.28 291.352C269.483 291.235 269.702 291.16 269.936 291.128C270.171 291.096 270.406 291.117 270.64 291.192L276.752 293.032L276.512 293.848L275.904 293.672C275.723 293.619 275.558 293.597 275.408 293.608C275.27 293.619 275.142 293.656 275.024 293.72C274.907 293.773 274.795 293.843 274.688 293.928C274.592 294.013 274.491 294.104 274.384 294.2L272.512 295.864C272.096 296.237 271.627 296.52 271.104 296.712C270.592 296.904 270.059 297 269.504 297H266.992C266.843 297 266.768 296.925 266.768 296.776V296.184ZM271.376 300.12H272.576V298.92H271.376V300.12ZM152.577 319.416H153.665V321H152.577V319.416ZM163.898 319.96H164.202C164.266 319.96 164.319 319.987 164.362 320.04C164.404 320.083 164.426 320.136 164.426 320.2V320.776C164.426 320.925 164.351 321 164.202 321H163.898C163.492 321 163.124 320.893 162.794 320.68C162.463 320.456 162.202 320.125 162.01 319.688C161.818 320.115 161.54 320.44 161.178 320.664C160.815 320.888 160.431 321 160.026 321H157.802C157.354 321 156.975 320.845 156.666 320.536C156.367 320.227 156.218 319.848 156.218 319.4V317.832H156.97V319.16C156.97 319.373 157.028 319.56 157.146 319.72C157.274 319.88 157.46 319.96 157.706 319.96H160.026C160.271 319.96 160.49 319.907 160.682 319.8C160.884 319.693 161.05 319.555 161.178 319.384C161.316 319.203 161.407 319.005 161.45 318.792C161.503 318.579 161.498 318.36 161.434 318.136L160.282 313.928L161.114 313.624L162.586 318.936C162.671 319.235 162.831 319.48 163.066 319.672C163.311 319.864 163.588 319.96 163.898 319.96ZM168.459 321C168.064 321 167.702 320.909 167.371 320.728C167.051 320.536 166.784 320.264 166.571 319.912C166.358 320.264 166.086 320.536 165.755 320.728C165.435 320.909 165.078 321 164.683 321H164.203C164.054 321 163.979 320.925 163.979 320.776V320.184C163.979 320.035 164.054 319.96 164.203 319.96H164.843C165.195 319.96 165.499 319.837 165.755 319.592C166.011 319.336 166.139 319.027 166.139 318.664V316.296H167.019V318.696C167.019 319.048 167.142 319.347 167.387 319.592C167.643 319.837 167.947 319.96 168.299 319.96H168.523C168.864 319.96 169.163 319.853 169.419 319.64C169.675 319.427 169.835 319.155 169.899 318.824L170.379 316.424L171.243 316.568L170.843 318.568C170.8 318.76 170.806 318.941 170.859 319.112C170.912 319.272 170.998 319.416 171.115 319.544C171.232 319.672 171.371 319.773 171.531 319.848C171.702 319.923 171.883 319.96 172.075 319.96H173.515V315.832H174.395V319.736C174.395 320.131 174.283 320.44 174.059 320.664C173.835 320.888 173.526 321 173.131 321H172.059C171.696 321 171.355 320.904 171.035 320.712C170.715 320.52 170.48 320.253 170.331 319.912C170.118 320.275 169.846 320.547 169.515 320.728C169.184 320.909 168.832 321 168.459 321ZM171.995 314.408H170.795V313.208H171.995V314.408ZM169.963 314.408H168.763V313.208H169.963V314.408ZM170.939 312.616H169.739V311.416H170.939V312.616ZM179.902 320.776C179.902 320.925 179.827 321 179.678 321H179.038C178.718 321 178.414 320.941 178.126 320.824C177.848 320.696 177.603 320.531 177.39 320.328C177.187 320.115 177.022 319.869 176.894 319.592C176.776 319.304 176.718 319 176.718 318.68V310.6H177.598V318.68C177.598 319.032 177.72 319.336 177.966 319.592C178.222 319.837 178.526 319.96 178.878 319.96H179.678C179.742 319.96 179.795 319.987 179.838 320.04C179.88 320.083 179.902 320.136 179.902 320.2V320.776ZM181.352 319.96C181.704 319.96 182.003 319.837 182.248 319.592C182.504 319.336 182.632 319.032 182.632 318.68V315.864H183.512V318.68C183.512 319 183.448 319.304 183.32 319.592C183.203 319.869 183.037 320.115 182.824 320.328C182.621 320.531 182.376 320.696 182.088 320.824C181.811 320.941 181.512 321 181.192 321H179.672C179.523 321 179.448 320.925 179.448 320.776V320.2C179.448 320.136 179.469 320.083 179.512 320.04C179.555 319.987 179.608 319.96 179.672 319.96H181.352ZM179.928 324.12H181.128V322.92H179.928V324.12ZM193.885 323.72C194.141 323.72 194.381 323.672 194.605 323.576C194.829 323.48 195.027 323.347 195.197 323.176C195.368 323.005 195.501 322.808 195.597 322.584C195.693 322.36 195.741 322.12 195.741 321.864V321H192.797V319.96H198.525C198.579 319.96 198.627 319.981 198.669 320.024C198.723 320.067 198.749 320.12 198.749 320.184V320.776C198.749 320.84 198.723 320.893 198.669 320.936C198.627 320.979 198.579 321 198.525 321H196.541C196.595 321.128 196.621 321.251 196.621 321.368V322.024C196.621 322.397 196.547 322.749 196.397 323.08C196.259 323.421 196.067 323.715 195.821 323.96C195.576 324.205 195.283 324.397 194.941 324.536C194.611 324.685 194.259 324.76 193.885 324.76H191.133C190.707 324.76 190.307 324.68 189.933 324.52C189.56 324.36 189.235 324.141 188.957 323.864C188.68 323.587 188.461 323.261 188.301 322.888C188.141 322.515 188.061 322.115 188.061 321.688V317.992H188.941V321.528C188.941 321.827 189 322.109 189.117 322.376C189.235 322.643 189.389 322.872 189.581 323.064C189.784 323.267 190.019 323.427 190.285 323.544C190.552 323.661 190.835 323.72 191.133 323.72H193.885ZM202.307 319.96H204.787V317.688C204.787 317.368 204.675 317.101 204.451 316.888C204.227 316.664 203.955 316.552 203.635 316.552H202.675C202.398 316.552 202.153 316.637 201.939 316.808C201.737 316.979 201.609 317.197 201.555 317.464L201.315 318.76C201.283 318.92 201.289 319.075 201.331 319.224C201.374 319.363 201.438 319.491 201.523 319.608C201.619 319.715 201.731 319.8 201.859 319.864C201.998 319.928 202.147 319.96 202.307 319.96ZM200.403 318.84L200.723 317.192C200.766 316.957 200.846 316.744 200.963 316.552C201.081 316.36 201.225 316.195 201.395 316.056C201.577 315.907 201.774 315.795 201.987 315.72C202.201 315.635 202.425 315.592 202.659 315.592H203.555C203.843 315.592 204.115 315.651 204.371 315.768C204.627 315.875 204.851 316.024 205.043 316.216C205.235 316.397 205.385 316.616 205.491 316.872C205.609 317.128 205.667 317.4 205.667 317.688V319.736C205.667 320.131 205.555 320.44 205.331 320.664C205.107 320.888 204.793 321 204.387 321H202.387C202.046 321 201.731 320.915 201.443 320.744C201.155 320.573 200.937 320.296 200.787 319.912C200.606 320.296 200.35 320.573 200.019 320.744C199.699 320.915 199.363 321 199.011 321H198.531C198.382 321 198.307 320.925 198.307 320.776V320.184C198.307 320.131 198.329 320.083 198.371 320.04C198.414 319.987 198.467 319.96 198.531 319.96H199.043C199.374 319.96 199.667 319.853 199.923 319.64C200.19 319.427 200.35 319.16 200.403 318.84Z" fill="#999999"/>
<defs>
<filter id="filter0_b_115_1947" x="-10" y="-10" width="378" height="374" filterUnits="userSpaceOnUse" color-interpolation-filters="sRGB">
<feFlood flood-opacity="0" result="BackgroundImageFix"/>
<feGaussianBlur in="BackgroundImageFix" stdDeviation="5"/>
<feComposite in2="SourceAlpha" operator="in" result="effect1_backgroundBlur_115_1947"/>
<feBlend mode="normal" in="SourceGraphic" in2="effect1_backgroundBlur_115_1947" result="shape"/>
</filter>
</defs>
</svg>
