<svg width="334" height="260" viewBox="0 0 434 260" fill="none" xmlns="http://www.w3.org/2000/svg">
<path d="M211.219 86.6016C211.375 87.3828 211.316 88.2422 211.043 89.1797C210.77 90.1172 210.32 91.1719 209.695 92.3438C209.109 93.4766 208.309 94.5312 207.293 95.5078C206.629 96.1328 206.102 96.4453 205.711 96.4453C205.477 96.4453 204.93 96.1133 204.07 95.4492C203.25 94.7461 202.488 94.1211 201.785 93.5742C201.121 92.9883 200.535 92.4609 200.027 91.9922C199.559 91.5234 199.324 91.1328 199.324 90.8203C199.832 89.7656 200.203 88.9648 200.438 88.418C201.219 86.6602 201.883 85.2734 202.43 84.2578C203.016 83.2422 203.914 81.7383 205.125 79.7461C205.828 80.332 206.688 81.0352 207.703 81.8555C208.758 82.6367 209.559 83.3789 210.105 84.082C210.691 84.7852 211.062 85.625 211.219 86.6016ZM228.914 80.8594C228.211 93.125 224.656 103.672 218.25 112.5C211.922 121.055 204.324 125.371 195.457 125.449C190.848 125.254 187.195 123.73 184.5 120.879C181.805 118.066 180.379 114.141 180.223 109.102C180.184 101.133 182.801 92.4805 188.074 83.1445C189.09 81.2695 189.695 80.6836 189.891 81.3867C190.086 82.0508 190.066 82.7344 189.832 83.4375C186.355 90.3125 184.578 96.25 184.5 101.25C184.656 105 185.984 107.852 188.484 109.805C191.023 111.758 194.363 112.812 198.504 112.969C203.582 112.969 208.465 111.621 213.152 108.926C217.801 105.84 221.043 101.719 222.879 96.5625C223.582 94.7656 223.934 92.3828 223.934 89.4141C223.934 88.2812 223.914 86.8555 223.875 85.1367C223.875 83.3789 223.875 82.1289 223.875 81.3867C224.031 79.2383 224.539 76.875 225.398 74.2969C226.258 71.6797 226.961 69.7852 227.508 68.6133C228.094 67.4414 228.582 66.8555 228.973 66.8555C229.246 66.8555 229.363 67.168 229.324 67.793C229.285 68.3789 229.227 69.5312 229.148 71.25C229.07 72.9688 228.992 76.1719 228.914 80.8594ZM239.812 82.9102C239.734 84.3945 239.578 85.7422 239.344 86.9531C239.109 88.125 238.797 89.1406 238.406 90C238.016 90.8203 237.508 91.4453 236.883 91.875C236.297 92.2656 235.574 92.4023 234.715 92.2852C234.754 89.2383 235.066 85 235.652 79.5703C236.277 74.1016 237.195 68.0664 238.406 61.4648C239.031 59.5508 240.301 56.1719 242.215 51.3281C242.41 50.8594 242.605 50.6641 242.801 50.7422C243.035 50.8203 243.152 51.0156 243.152 51.3281C243.035 53.7109 242.547 58.2617 241.688 64.9805C240.828 71.6992 240.301 76.3086 240.105 78.8086C239.91 81.3086 239.812 82.6758 239.812 82.9102ZM234.715 92.2266C235.496 88.8672 236.395 86.3867 237.41 84.7852C238.387 83.1836 239.188 82.3047 239.812 82.1484V84.7266C239.812 88.0078 240.691 90.293 242.449 91.582C243.504 92.2852 244.559 92.5195 245.613 92.2852C246.668 92.0508 247.469 91.5039 248.016 90.6445C248.602 89.7852 249.09 88.7891 249.48 87.6562C249.871 86.4844 250.242 85.8984 250.594 85.8984C251.023 85.8984 251.199 86.3086 251.121 87.1289C251.082 88.5352 250.633 90.8203 249.773 93.9844C248.953 97.1484 247.82 99.7461 246.375 101.777C244.93 103.809 243.172 104.883 241.102 105C238.992 104.922 237.352 103.73 236.18 101.426C235.125 99.1602 234.637 96.2305 234.715 92.6367V92.2266ZM232.84 145.605C232.84 145.098 233.641 143.34 235.242 140.332C236.844 137.324 237.82 135.82 238.172 135.82C238.836 135.547 239.793 136.016 241.043 137.227C242.332 138.477 243.309 139.57 243.973 140.508C244.754 139.219 245.613 137.773 246.551 136.172C247.527 134.57 248.172 133.77 248.484 133.77C249.461 133.77 250.613 134.473 251.941 135.879C253.309 137.324 254.031 138.672 254.109 139.922C254.109 141.406 253.387 143.164 251.941 145.195C250.535 147.188 249.5 148.184 248.836 148.184C248.406 148.184 247.625 147.617 246.492 146.484C245.359 145.352 244.363 144.473 243.504 143.848C241.395 148.105 239.715 150.234 238.465 150.234C238.152 150.234 237.703 149.98 237.117 149.473C236.57 149.004 235.73 148.301 234.598 147.363C233.426 146.426 232.84 145.84 232.84 145.605ZM279.305 83.6133C279.773 83.418 280.223 83.2422 280.652 83.0859C281.16 84.3359 281.395 85.5859 281.355 86.8359C281.316 88.0859 281.082 89.3164 280.652 90.5273C280.418 90.6055 279.246 91.0352 277.137 91.8164C275.027 92.5977 273.719 93.1055 273.211 93.3398C271.141 94.1602 268.777 96.1914 266.121 99.4336C263.504 102.676 261.238 105.469 259.324 107.812C255.379 112.852 250.945 117.012 246.023 120.293C244.891 120.957 243.621 121.641 242.215 122.344C240.184 123.359 238.66 124.102 237.645 124.57C236.785 125 236.141 125.098 235.711 124.863C235.516 124.551 235.613 124.199 236.004 123.809C236.238 123.652 236.512 123.438 236.824 123.164C237.137 122.93 237.488 122.656 237.879 122.344L242.801 118.828C246.004 116.289 247.918 114.688 248.543 114.023C250.34 112.344 251.609 111.035 252.352 110.098C253.172 109.395 254.266 108.184 255.633 106.465C256.609 105.293 258.641 102.461 261.727 97.9688C263.484 95.5078 264.891 93.6328 265.945 92.3438C267.469 90.625 268.934 89.1992 270.34 88.0664C271.785 87.0508 273.23 86.2109 274.676 85.5469C275.223 85.2734 276.766 84.6289 279.305 83.6133ZM274.5 79.3906C274.852 78.3359 275.359 77.2812 276.023 76.2266C276.648 75.1719 277.332 74.1758 278.074 73.2383C278.895 72.2227 279.773 71.2656 280.711 70.3672C280.867 70.6797 281.004 71.0117 281.121 71.3633C281.238 71.6758 281.297 71.9102 281.297 72.0664C281.297 72.5742 281.258 72.9062 281.18 73.0625C281.141 73.375 280.984 73.6875 280.711 74L279.656 75.2891L283.348 74.2344L289.441 72.7695C291.043 72.457 292.312 72.3008 293.25 72.3008C294.695 72.3008 295.418 72.75 295.418 73.6484C295.418 74.3516 295.027 75.4453 294.246 76.9297C293.582 78.2969 292.723 79.7617 291.668 81.3242C290.418 83.4336 289.051 85.2695 287.566 86.832C286.59 87.9258 285.301 89 283.699 90.0547C283.074 90.4844 282.078 90.9531 280.711 91.4609C280.555 91.3438 280.359 91.0117 280.125 90.4648C279.852 89.957 279.656 89.332 279.539 88.5898C279.422 87.8477 279.441 87.0664 279.598 86.2461C279.715 85.4648 280.086 84.7227 280.711 84.0195C282.312 83.4336 283.348 83.043 283.816 82.8477C285.574 82.2227 286.922 81.6367 287.859 81.0898C288.68 80.543 289.246 79.7422 289.559 78.6875C289.598 78.4922 289.578 78.3359 289.5 78.2188C289.305 78.0234 288.953 77.9258 288.445 77.9258C287.781 77.9258 285.34 78.3945 281.121 79.332C276.902 80.2695 274.598 80.7383 274.207 80.7383C274.285 80.2305 274.383 79.7812 274.5 79.3906ZM275.379 134.645C275.379 135.074 275.672 135.484 276.258 135.875C276.922 136.344 277.957 137.027 279.363 137.926C280.73 138.863 281.531 139.391 281.766 139.508C282.391 139.508 283.387 138.336 284.754 135.992C286.121 133.648 286.805 131.852 286.805 130.602C286.688 129.664 285.809 128.355 284.168 126.676C282.527 125.035 281.277 124.391 280.418 124.742C279.988 124.742 279.051 126.168 277.605 129.02C276.121 131.91 275.379 133.785 275.379 134.645ZM288.152 65.1523C291.355 63.3945 294.109 62.5156 296.414 62.5156C296.922 62.5156 297.332 62.75 297.645 63.2188C297.918 63.8438 298.738 64.1367 300.105 64.0977C301.473 64.0586 302.645 63.4531 303.621 62.2812C304.598 61.1094 305.398 60.0742 306.023 59.1758C306.688 58.2773 307.156 57.8672 307.43 57.9453C307.547 57.9062 307.723 58.0625 307.957 58.4141C308.191 58.7656 308.465 58.9414 308.777 58.9414C309.402 58.9414 310.027 58.4336 310.652 57.418C311.16 56.5586 311.707 55.2891 312.293 53.6094C312.566 53.4141 312.801 53.7461 312.996 54.6055C312.918 56.5586 312.215 58.8242 310.887 61.4023C309.559 63.8242 307.938 65.0352 306.023 65.0352C305.867 65.0352 304.734 66.0508 302.625 68.082C300.398 70.1133 298.367 71.1289 296.531 71.1289C296.062 71.1289 295.457 70.8359 294.715 70.25C294.012 69.625 293.172 69.3711 292.195 69.4883C290.203 69.7227 288.191 70.2305 286.16 71.0117C284.051 71.832 282.234 72.8281 280.711 74C280.438 73.4531 280.301 72.8672 280.301 72.2422C280.262 71.6172 280.398 70.9922 280.711 70.3672C281.766 69.4688 282.918 68.5508 284.168 67.6133C285.418 66.6758 286.746 65.8555 288.152 65.1523ZM293.25 25.3086C293.25 24.8398 294.07 23.0625 295.711 19.9766C297.391 16.8906 298.426 15.3477 298.816 15.3477C299.441 15.3477 300.418 15.9141 301.746 17.0469C303.113 18.1797 304.031 19.2539 304.5 20.2695C305.359 18.8633 306.18 17.4961 306.961 16.168C308.094 14.293 308.797 13.3555 309.07 13.3555C310.008 13.3555 311.199 14.0195 312.645 15.3477C314.051 16.832 314.754 18.1992 314.754 19.4492C314.754 20.8945 314.051 22.6914 312.645 24.8398C311.199 26.9102 310.164 27.9453 309.539 27.9453C309.031 27.9453 308.309 27.457 307.371 26.4805C306.082 25.1133 305.008 24.1172 304.148 23.4922C302 27.8672 300.32 30.0547 299.109 30.0547C298.836 30.0547 297.781 29.332 295.945 27.8867C294.148 26.4414 293.25 25.582 293.25 25.3086ZM298.582 10.7773C298.582 10.3867 299.305 8.66797 300.75 5.62109C302.234 2.53516 303.191 0.992188 303.621 0.992188C304.715 0.992188 305.926 1.65625 307.254 2.98438C308.582 4.46875 309.246 5.89453 309.246 7.26172C309.246 8.55078 308.621 10.3281 307.371 12.5938C306.16 14.8594 305.262 15.9922 304.676 15.9922C304.324 15.9922 303.543 15.4648 302.332 14.4102C301.121 13.3164 300.184 12.5352 299.52 12.0664C298.895 11.5977 298.582 11.168 298.582 10.7773ZM348.797 86.6016C348.953 87.3828 348.895 88.2422 348.621 89.1797C348.348 90.1172 347.898 91.1719 347.273 92.3438C346.688 93.4766 345.887 94.5312 344.871 95.5078C344.207 96.1328 343.68 96.4453 343.289 96.4453C343.055 96.4453 342.508 96.1133 341.648 95.4492C340.828 94.7461 340.066 94.1211 339.363 93.5742C338.699 92.9883 338.113 92.4609 337.605 91.9922C337.137 91.5234 336.902 91.1328 336.902 90.8203C337.41 89.7656 337.781 88.9648 338.016 88.418C338.797 86.6602 339.461 85.2734 340.008 84.2578C340.594 83.2422 341.492 81.7383 342.703 79.7461C343.406 80.332 344.266 81.0352 345.281 81.8555C346.336 82.6367 347.137 83.3789 347.684 84.082C348.27 84.7852 348.641 85.625 348.797 86.6016ZM366.492 80.8594C365.789 93.125 362.234 103.672 355.828 112.5C349.5 121.055 341.902 125.371 333.035 125.449C328.426 125.254 324.773 123.73 322.078 120.879C319.383 118.066 317.957 114.141 317.801 109.102C317.762 101.133 320.379 92.4805 325.652 83.1445C326.668 81.2695 327.273 80.6836 327.469 81.3867C327.664 82.0508 327.645 82.7344 327.41 83.4375C323.934 90.3125 322.156 96.25 322.078 101.25C322.234 105 323.562 107.852 326.062 109.805C328.602 111.758 331.941 112.812 336.082 112.969C341.16 112.969 346.043 111.621 350.73 108.926C355.379 105.84 358.621 101.719 360.457 96.5625C361.16 94.7656 361.512 92.3828 361.512 89.4141C361.512 88.2812 361.492 86.8555 361.453 85.1367C361.453 83.3789 361.453 82.1289 361.453 81.3867C361.609 79.2383 362.117 76.875 362.977 74.2969C363.836 71.6797 364.539 69.7852 365.086 68.6133C365.672 67.4414 366.16 66.8555 366.551 66.8555C366.824 66.8555 366.941 67.168 366.902 67.793C366.863 68.3789 366.805 69.5312 366.727 71.25C366.648 72.9688 366.57 76.1719 366.492 80.8594ZM388.348 88.5352C386.98 92.3242 385.711 95.1172 384.539 96.9141C383.367 98.7109 382.449 99.8242 381.785 100.254C381.121 100.684 380.125 101.152 378.797 101.66C377.469 102.129 375.438 102.812 372.703 103.711C370.008 104.57 368.406 105 367.898 105C367.586 105 367.43 104.922 367.43 104.766C367.117 104.336 368.738 102.93 372.293 100.547C375.848 98.1641 378.133 96.6016 379.148 95.8594C380.203 95.1172 381.258 94.043 382.312 92.6367C383.406 91.1914 384.207 89.5703 384.715 87.7734C384.168 87.6953 383.602 87.8125 383.016 88.125C382.469 88.3984 381.922 88.5352 381.375 88.5352C379.93 88.4961 378.719 88.0273 377.742 87.1289C376.766 86.2305 376.355 85.2344 376.512 84.1406C376.668 83.4766 376.883 82.7148 377.156 81.8555C377.469 80.957 378.094 79.5508 379.031 77.6367C379.969 75.7227 380.906 74.1406 381.844 72.8906C382.82 71.6406 383.777 71.0156 384.715 71.0156C386.316 71.0156 387.645 71.6992 388.699 73.0664C389.793 74.4336 390.34 76.0742 390.34 77.9883C390.34 78.9648 390.281 79.9414 390.164 80.918C390.047 81.8555 389.91 82.6562 389.754 83.3203C389.637 83.9453 389.441 84.7656 389.168 85.7812C388.934 86.7578 388.66 87.6758 388.348 88.5352ZM387.059 85.0625C387.059 84.7891 386.863 83.7539 386.473 81.957C386.395 81.4102 386.355 80.8828 386.355 80.375C386.355 79.4375 387.254 78.6367 389.051 77.9727C389.637 77.7383 390.379 77.1914 391.277 76.332C392.176 75.4727 392.684 74.75 392.801 74.1641C392.918 73.5781 392.957 73.0508 392.918 72.582C392.879 72.1133 392.82 71.4688 392.742 70.6484C392.664 70.2188 392.625 69.6328 392.625 68.8906C392.625 68.4609 392.664 68.0898 392.742 67.7773C392.82 67.3086 394.422 63.4805 397.547 56.293C397.938 56.0586 398.191 56.0586 398.309 56.293C398.426 56.5273 398.484 56.9961 398.484 57.6992L398.367 66.957C398.289 70.2773 397.527 73.4219 396.082 76.3906C394.637 79.3594 393.387 81.4297 392.332 82.6016C391.316 83.7344 390.242 84.8672 389.109 86C388.094 87.7578 387.41 87.4453 387.059 85.0625ZM380.027 140.434C380.027 140.668 380.613 141.254 381.785 142.191C382.918 143.129 383.758 143.832 384.305 144.301C384.891 144.809 385.34 145.062 385.652 145.062C386.902 145.062 388.582 142.934 390.691 138.676C391.551 139.301 392.547 140.18 393.68 141.312C394.812 142.445 395.594 143.012 396.023 143.012C396.688 143.012 397.723 142.016 399.129 140.023C400.574 137.992 401.297 136.234 401.297 134.75C401.219 133.5 400.496 132.152 399.129 130.707C397.801 129.301 396.648 128.598 395.672 128.598C395.359 128.598 394.715 129.398 393.738 131C392.801 132.602 391.941 134.047 391.16 135.336C390.496 134.398 389.539 133.305 388.289 132.055C387 130.844 386.023 130.375 385.359 130.648C385.008 130.648 384.031 132.152 382.43 135.16C380.828 138.168 380.027 139.926 380.027 140.434ZM409.383 82.9102C409.305 84.3945 409.148 85.7422 408.914 86.9531C408.68 88.125 408.367 89.1406 407.977 90C407.586 90.8203 407.078 91.4453 406.453 91.875C405.867 92.2656 405.145 92.4023 404.285 92.2852C404.324 89.2383 404.637 85 405.223 79.5703C405.848 74.1016 406.766 68.0664 407.977 61.4648C408.602 59.5508 409.871 56.1719 411.785 51.3281C411.98 50.8594 412.176 50.6641 412.371 50.7422C412.605 50.8203 412.723 51.0156 412.723 51.3281C412.605 53.7109 412.117 58.2617 411.258 64.9805C410.398 71.6992 409.871 76.3086 409.676 78.8086C409.48 81.3086 409.383 82.6758 409.383 82.9102ZM416.18 88.9453C416.648 89.375 417.43 89.6094 418.523 89.6484C419.617 89.6484 420.418 89.6484 420.926 89.6484C421.707 89.7266 422.098 90.1758 422.098 90.9961C422.098 91.582 421.785 92.8125 421.16 94.6875C420.066 97.9688 418.641 100.488 416.883 102.246C415.047 104.082 413.035 105 410.848 105C408.777 105 407.156 103.965 405.984 101.895C404.812 99.7852 404.246 97.2266 404.285 94.2188L404.344 91.582C404.461 90.5273 404.676 89.4336 404.988 88.3008C405.301 87.168 405.691 86.1523 406.16 85.2539C406.629 84.3164 407.156 83.5742 407.742 83.0273C408.289 82.4414 408.836 82.1875 409.383 82.2656C409.383 87.7734 409.988 90.7227 411.199 91.1133C411.629 90.6836 412.234 89.7461 413.016 88.3008C413.484 87.4414 413.836 86.8555 414.07 86.543C414.227 86.3477 414.441 86.2109 414.715 86.1328C415.027 86.0547 415.34 86.0156 415.652 86.0156C416.004 86.0156 416.316 86.0742 416.59 86.1914C416.863 86.2695 417.059 86.3867 417.176 86.543C416.902 86.7773 416.727 86.9336 416.648 87.0117C415.828 87.832 415.672 88.4766 416.18 88.9453ZM414.129 87C415.418 84.9297 416.727 83.1328 418.055 81.6094C419.383 80.0859 420.73 78.7773 422.098 77.6836C424.285 75.9648 426.043 75.1445 427.371 75.2227C428.426 75.3008 429.324 75.8281 430.066 76.8047C430.652 75.6719 430.965 75.0469 431.004 74.9297C431.707 73.6406 432.215 73.0156 432.527 73.0547C433.465 73.0938 433.895 73.9531 433.816 75.6328C433.738 77.5078 433.094 79.2852 431.883 80.9648C430.633 82.5664 429.324 83.3281 427.957 83.25C427.449 83.2109 426.863 83.0742 426.199 82.8398C425.535 82.5664 425.105 82.4102 424.91 82.3711C423.895 82.2539 422.762 82.6055 421.512 83.4258C420.301 84.2461 418.875 85.4375 417.234 87C416.648 87.3516 415.613 87.3516 414.129 87ZM428.484 100.711C427.469 102 426.199 104.344 424.676 107.742C423.191 111.18 422.488 113.602 422.566 115.008C425.066 116.414 426.316 117.898 426.316 119.461C426.316 120.594 425.965 121.648 425.262 122.625C424.598 123.602 423.777 124.09 422.801 124.09C421.785 124.09 421.043 123.621 420.574 122.684C420.145 121.707 419.93 120.633 419.93 119.461C419.93 116.727 421.121 112.898 423.504 107.977C425.887 103.055 427.547 100.633 428.484 100.711Z" fill="white"/>
<path d="M8.92575 219.6C8.02975 219.6 7.18708 219.429 6.39775 219.088C5.62975 218.768 4.95775 218.32 4.38175 217.744C3.80575 217.168 3.34708 216.485 3.00575 215.696C2.68575 214.928 2.52575 214.096 2.52575 213.2V204.656H4.73375V212.848C4.73375 213.424 4.84042 213.957 5.05375 214.448C5.26708 214.96 5.55508 215.397 5.91775 215.76C6.30175 216.144 6.74975 216.443 7.26175 216.656C7.77375 216.869 8.31775 216.976 8.89375 216.976H14.4298C14.9204 216.976 15.3791 216.88 15.8058 216.688C16.2324 216.517 16.6058 216.272 16.9258 215.952C17.2458 215.653 17.4911 215.291 17.6618 214.864C17.8538 214.459 17.9498 214.011 17.9498 213.52V204.112H20.1578V213.904C20.1578 214.693 20.0084 215.429 19.7098 216.112C19.4111 216.816 18.9951 217.424 18.4618 217.936C17.9498 218.448 17.3418 218.853 16.6378 219.152C15.9551 219.451 15.2191 219.6 14.4298 219.6H8.92575ZM9.98175 201.36H12.7018V204.08H9.98175V201.36ZM26.8268 214H24.6188V192.912H26.8268V214ZM25.4552 221.968L24.7512 219.792L28.6553 218.512C29.5513 218.213 30.2766 217.669 30.8313 216.88C31.4073 216.091 31.6953 215.216 31.6953 214.256V204.112H33.8713V214.064C33.8713 214.811 33.7539 215.525 33.5193 216.208C33.3059 216.912 32.9859 217.552 32.5593 218.128C32.1539 218.725 31.6526 219.237 31.0553 219.664C30.4793 220.112 29.8393 220.464 29.1353 220.72L25.4552 221.968ZM42.5853 214C41.9239 214 41.3159 213.861 40.7613 213.584C40.2066 213.307 39.7373 212.933 39.3533 212.464C38.9693 211.995 38.6919 211.461 38.5213 210.864C38.3506 210.245 38.3293 209.616 38.4573 208.976L39.0013 206.064C39.0866 205.573 39.2573 205.125 39.5133 204.72C39.7693 204.293 40.0786 203.931 40.4413 203.632C40.8039 203.333 41.2093 203.099 41.6573 202.928C42.1266 202.757 42.6173 202.672 43.1293 202.672H44.9213C45.5399 202.672 46.1159 202.789 46.6493 203.024C47.2039 203.259 47.6839 203.579 48.0893 203.984C48.4946 204.368 48.8146 204.837 49.0493 205.392C49.2839 205.925 49.4013 206.501 49.4013 207.12V211.376H51.9293C52.0573 211.376 52.1639 211.429 52.2493 211.536C52.3346 211.621 52.3773 211.717 52.3773 211.824V213.552C52.3773 213.851 52.2279 214 51.9293 214H49.3693V214.384C49.3266 215.835 48.8679 217.136 47.9933 218.288C47.1399 219.461 46.0093 220.293 44.6013 220.784L40.9533 222.032L40.2493 219.824L44.0893 218.544C45.0066 218.224 45.7426 217.68 46.2973 216.912C46.8733 216.165 47.1613 215.301 47.1613 214.32V213.744C46.9906 213.851 46.7879 213.925 46.5533 213.968C46.3399 213.989 46.1159 214 45.8813 214H42.5853ZM42.3613 211.376H47.1933V207.12C47.1933 206.565 46.9906 206.096 46.5853 205.712C46.2013 205.307 45.7319 205.104 45.1773 205.104H43.0653C42.5746 205.104 42.1479 205.253 41.7853 205.552C41.4226 205.851 41.1879 206.245 41.0813 206.736L40.6013 209.296C40.4946 209.851 40.6226 210.341 40.9852 210.768C41.3479 211.173 41.8066 211.376 42.3613 211.376ZM56.6735 205.072L55.0415 203.536L63.4575 193.712L65.0255 195.184L58.7215 202.672H71.3295C71.9482 202.672 72.5242 202.789 73.0575 203.024C73.6122 203.259 74.0922 203.579 74.4975 203.984C74.9028 204.368 75.2228 204.837 75.4575 205.392C75.6922 205.925 75.8095 206.501 75.8095 207.12V209.52C75.8095 210.139 75.6922 210.725 75.4575 211.28C75.2228 211.813 74.8922 212.283 74.4655 212.688C74.0602 213.093 73.5802 213.413 73.0255 213.648C72.4922 213.883 71.9162 214 71.2975 214H51.9375C51.8095 214 51.7028 213.957 51.6175 213.872C51.5322 213.765 51.4895 213.659 51.4895 213.552V211.824C51.4895 211.525 51.6388 211.376 51.9375 211.376H71.6175C72.1722 211.397 72.6415 211.216 73.0255 210.832C73.4095 210.427 73.6015 209.936 73.6015 209.36V207.216C73.6015 206.619 73.3882 206.117 72.9615 205.712C72.5562 205.285 72.0442 205.072 71.4255 205.072H56.6735ZM53.6975 199.792L60.1615 192.144L61.3135 193.2L54.8495 200.784L53.6975 199.792ZM104.754 214C104.263 214 103.772 213.915 103.282 213.744C102.791 213.552 102.354 213.211 101.97 212.72V214.064C101.97 214.832 101.82 215.547 101.522 216.208C101.223 216.891 100.807 217.477 100.274 217.968C99.7615 218.459 99.1535 218.843 98.4495 219.12C97.7668 219.419 97.0415 219.568 96.2735 219.568H90.7695C89.8735 219.568 89.0308 219.397 88.2415 219.056C87.4735 218.736 86.8015 218.288 86.2255 217.712C85.6495 217.136 85.1908 216.453 84.8495 215.664C84.5082 214.896 84.3375 214.064 84.3375 213.168V204.624H86.5455V212.816C86.5455 213.392 86.6522 213.925 86.8655 214.416C87.1002 214.928 87.3988 215.365 87.7615 215.728C88.1455 216.112 88.5935 216.411 89.1055 216.624C89.6175 216.837 90.1615 216.944 90.7375 216.944H96.3055C96.7962 216.944 97.2442 216.848 97.6495 216.656C98.0762 216.485 98.4495 216.24 98.7695 215.92C99.0895 215.621 99.3348 215.259 99.5055 214.832C99.6975 214.427 99.7935 213.979 99.7935 213.488V204.08H102.002V209.104C102.002 209.744 102.226 210.288 102.674 210.736C103.122 211.163 103.666 211.376 104.306 211.376H104.85C105.468 211.376 106.012 211.195 106.482 210.832C106.951 210.448 107.239 209.957 107.346 209.36L108.37 204.304L110.514 204.656L109.714 208.752C109.65 209.093 109.66 209.424 109.746 209.744C109.831 210.064 109.97 210.341 110.162 210.576C110.375 210.811 110.631 211.003 110.93 211.152C111.228 211.301 111.548 211.376 111.89 211.376H114.674V203.152H116.882V211.12C116.882 211.995 116.615 212.699 116.082 213.232C115.57 213.744 114.876 214 114.002 214H111.89C111.164 214 110.503 213.829 109.906 213.488C109.308 213.125 108.818 212.592 108.434 211.888C108.007 212.613 107.474 213.147 106.834 213.488C106.194 213.829 105.5 214 104.754 214ZM111.922 200.496H109.202V197.776H111.922V200.496ZM107.538 200.496H104.818V197.776H107.538V200.496ZM109.618 196.592H106.898V193.872H109.618V196.592ZM115.393 221.968L114.689 219.792L118.593 218.512C119.489 218.213 120.214 217.669 120.769 216.88C121.345 216.091 121.633 215.216 121.633 214.256V204.112H123.809V214.064C123.809 214.811 123.691 215.525 123.457 216.208C123.243 216.912 122.923 217.552 122.497 218.128C122.091 218.725 121.59 219.237 120.993 219.664C120.417 220.112 119.777 220.464 119.073 220.72L115.393 221.968ZM129.185 214H126.977V195.472H129.185V214ZM123.009 194.672V193.456C123.009 192.731 123.243 192.133 123.713 191.664C124.161 191.195 124.758 190.96 125.505 190.96H131.585V192.912H125.473C125.259 192.912 125.067 192.997 124.897 193.168C124.747 193.317 124.673 193.509 124.673 193.744V194.672H123.009ZM154.596 209.552C155.278 209.701 155.822 210.011 156.228 210.48C156.633 210.949 156.836 211.525 156.836 212.208V213.488C156.836 214.277 156.686 215.024 156.388 215.728C156.089 216.432 155.673 217.04 155.14 217.552C154.628 218.085 154.02 218.501 153.316 218.8C152.633 219.099 151.897 219.248 151.108 219.248H144.644C143.769 219.248 142.937 219.077 142.148 218.736C141.38 218.395 140.708 217.936 140.132 217.36C139.556 216.784 139.097 216.101 138.756 215.312C138.414 214.544 138.244 213.712 138.244 212.816V205.456H140.452V212.464C140.452 213.04 140.558 213.573 140.772 214.064C140.985 214.576 141.284 215.013 141.668 215.376C142.052 215.76 142.5 216.059 143.012 216.272C143.524 216.507 144.068 216.624 144.644 216.624H151.204C151.673 216.624 152.11 216.528 152.516 216.336C152.942 216.165 153.305 215.92 153.604 215.6C153.924 215.301 154.169 214.939 154.34 214.512C154.532 214.085 154.628 213.637 154.628 213.168V211.92L145.892 209.872V206.48C145.892 205.712 146.02 204.997 146.276 204.336C146.553 203.653 146.926 203.056 147.396 202.544C147.865 202.032 148.398 201.616 148.996 201.296C149.614 200.976 150.276 200.773 150.98 200.688L154.692 200.208L155.044 202.512L150.82 203.088C150.009 203.216 149.337 203.611 148.804 204.272C148.292 204.912 148.036 205.637 148.036 206.448V208.016L154.596 209.552ZM166.81 204.144V209.168C166.81 209.787 167.034 210.309 167.482 210.736C167.951 211.163 168.495 211.376 169.114 211.376H172.314C172.442 211.376 172.548 211.429 172.634 211.536C172.719 211.621 172.762 211.728 172.762 211.856V213.552C172.762 213.851 172.612 214 172.314 214H169.498C168.986 214 168.484 213.893 167.994 213.68C167.503 213.467 167.108 213.147 166.81 212.72V214.128C166.81 214.875 166.692 215.589 166.458 216.272C166.223 216.976 165.892 217.616 165.466 218.192C165.06 218.768 164.559 219.269 163.962 219.696C163.364 220.144 162.714 220.485 162.01 220.72L158.361 222L157.657 219.792L161.53 218.512C162.468 218.213 163.215 217.669 163.77 216.88C164.324 216.091 164.602 215.216 164.602 214.256V204.144H166.81ZM176.536 220.592H179.257V217.872H176.536V220.592ZM183.833 213.552C183.833 213.851 183.683 214 183.385 214H181.401C181.038 214 180.675 213.947 180.312 213.84C179.95 213.733 179.609 213.584 179.289 213.392C178.969 213.2 178.691 212.976 178.457 212.72C178.222 212.464 178.062 212.187 177.977 211.888C177.614 212.507 177.091 213.019 176.409 213.424C175.747 213.808 175.043 214 174.297 214H172.312C172.014 214 171.864 213.851 171.864 213.552V211.856C171.864 211.728 171.907 211.621 171.992 211.536C172.078 211.429 172.184 211.376 172.312 211.376H174.393C175.011 211.376 175.545 211.184 175.993 210.8C176.462 210.416 176.761 209.936 176.889 209.36L177.881 204.304L180.057 204.656L179.225 208.88C179.161 209.2 179.171 209.52 179.257 209.84C179.342 210.139 179.491 210.405 179.705 210.64C179.918 210.853 180.174 211.035 180.473 211.184C180.771 211.312 181.091 211.376 181.433 211.376H183.385C183.513 211.376 183.619 211.429 183.705 211.536C183.79 211.621 183.833 211.728 183.833 211.856V213.552ZM183.375 214C183.268 214 183.172 213.957 183.087 213.872C182.98 213.787 182.927 213.691 182.927 213.584V211.792C182.927 211.664 182.98 211.568 183.087 211.504C183.172 211.419 183.268 211.376 183.375 211.376H186.735C186.436 211.269 186.202 210.971 186.031 210.48C185.882 209.968 185.86 209.445 185.967 208.912L186.415 206.672C186.522 206.203 186.692 205.765 186.927 205.36C187.183 204.955 187.482 204.613 187.823 204.336C188.186 204.037 188.591 203.813 189.039 203.664C189.487 203.493 189.946 203.408 190.415 203.408H191.599C192.218 203.408 192.783 203.525 193.295 203.76C193.828 203.973 194.287 204.272 194.671 204.656C195.055 205.04 195.354 205.499 195.567 206.032C195.78 206.544 195.887 207.099 195.887 207.696V210.288C195.887 210.629 195.844 210.885 195.759 211.056C195.695 211.227 195.663 211.333 195.663 211.376H200.879V206.896C200.879 206.171 200.687 205.573 200.303 205.104C199.94 204.635 199.471 204.315 198.895 204.144L188.399 200.88L189.007 198.64L199.279 201.84C200.367 202.181 201.274 202.789 201.999 203.664C202.724 204.517 203.087 205.605 203.087 206.928V210.96C203.087 211.92 202.82 212.667 202.287 213.2C201.754 213.733 201.007 214 200.047 214H195.247V212.496C195.204 212.603 195.108 212.741 194.959 212.912C194.831 213.083 194.65 213.253 194.415 213.424C194.18 213.573 193.914 213.712 193.615 213.84C193.316 213.947 192.986 214 192.623 214H183.375ZM193.711 211.376V207.6C193.711 207.067 193.519 206.619 193.135 206.256C192.772 205.872 192.314 205.68 191.759 205.68H190.319C189.871 205.68 189.466 205.829 189.103 206.128C188.762 206.427 188.548 206.8 188.463 207.248L188.047 209.424C187.94 209.979 188.058 210.448 188.399 210.832C188.762 211.195 189.199 211.376 189.711 211.376H193.711ZM201.58 221.968L200.876 219.792L204.78 218.512C205.676 218.213 206.402 217.669 206.956 216.88C207.532 216.091 207.82 215.216 207.82 214.256V204.112H209.996V214.064C209.996 214.811 209.879 215.525 209.644 216.208C209.431 216.912 209.111 217.552 208.684 218.128C208.279 218.725 207.778 219.237 207.18 219.664C206.604 220.112 205.964 220.464 205.26 220.72L201.58 221.968ZM218.963 206.48C218.963 205.136 219.315 204.027 220.019 203.152C220.744 202.277 221.672 201.691 222.803 201.392L227.219 200.272V197.648H229.427V208.88C229.427 209.221 229.501 209.541 229.651 209.84C229.8 210.139 229.992 210.405 230.227 210.64C230.461 210.853 230.739 211.035 231.059 211.184C231.4 211.312 231.741 211.376 232.083 211.376H233.043C233.341 211.376 233.491 211.525 233.491 211.824V213.552C233.491 213.851 233.341 214 233.043 214H232.083C231.08 214 230.195 213.733 229.427 213.2C228.659 212.667 228.083 211.973 227.699 211.12C227.315 211.44 226.835 211.6 226.259 211.6H221.971C221.011 211.6 220.264 211.333 219.731 210.8C219.219 210.267 218.963 209.52 218.963 208.56V206.48ZM227.219 202.608L223.283 203.632C222.621 203.803 222.099 204.176 221.715 204.752C221.352 205.307 221.171 205.904 221.171 206.544V208.976H227.219V202.608ZM236.263 211.376C236.903 211.376 237.447 211.152 237.895 210.704C238.343 210.235 238.567 209.691 238.567 209.072V203.216H240.775V209.104C240.775 209.787 240.647 210.427 240.391 211.024C240.135 211.621 239.783 212.144 239.335 212.592C238.887 213.019 238.365 213.36 237.767 213.616C237.191 213.872 236.562 214 235.879 214H233.031C232.733 214 232.583 213.851 232.583 213.552V211.856C232.583 211.728 232.626 211.621 232.711 211.536C232.797 211.429 232.903 211.376 233.031 211.376H236.263ZM233.639 220.56H236.359V217.84H233.639V220.56ZM269.691 214C269.2 214 268.71 213.915 268.219 213.744C267.728 213.552 267.291 213.211 266.907 212.72V214.064C266.907 214.832 266.758 215.547 266.459 216.208C266.16 216.891 265.744 217.477 265.211 217.968C264.699 218.459 264.091 218.843 263.387 219.12C262.704 219.419 261.979 219.568 261.211 219.568H255.707C254.811 219.568 253.968 219.397 253.179 219.056C252.411 218.736 251.739 218.288 251.163 217.712C250.587 217.136 250.128 216.453 249.787 215.664C249.446 214.896 249.275 214.064 249.275 213.168V204.624H251.483V212.816C251.483 213.392 251.59 213.925 251.803 214.416C252.038 214.928 252.336 215.365 252.699 215.728C253.083 216.112 253.531 216.411 254.043 216.624C254.555 216.837 255.099 216.944 255.675 216.944H261.243C261.734 216.944 262.182 216.848 262.587 216.656C263.014 216.485 263.387 216.24 263.707 215.92C264.027 215.621 264.272 215.259 264.443 214.832C264.635 214.427 264.731 213.979 264.731 213.488V204.08H266.939V209.104C266.939 209.744 267.163 210.288 267.611 210.736C268.059 211.163 268.603 211.376 269.243 211.376H269.787C270.406 211.376 270.95 211.195 271.419 210.832C271.888 210.448 272.176 209.957 272.283 209.36L273.307 204.304L275.451 204.656L274.651 208.752C274.587 209.093 274.598 209.424 274.683 209.744C274.768 210.064 274.907 210.341 275.099 210.576C275.312 210.811 275.568 211.003 275.867 211.152C276.166 211.301 276.486 211.376 276.827 211.376H279.611V203.152H281.819V211.12C281.819 211.995 281.552 212.699 281.019 213.232C280.507 213.744 279.814 214 278.939 214H276.827C276.102 214 275.44 213.829 274.843 213.488C274.246 213.125 273.755 212.592 273.371 211.888C272.944 212.613 272.411 213.147 271.771 213.488C271.131 213.829 270.438 214 269.691 214ZM276.859 200.496H274.139V197.776H276.859V200.496ZM272.475 200.496H269.755V197.776H272.475V200.496ZM274.555 196.592H271.835V193.872H274.555V196.592ZM296.901 214.096C296.901 214.843 296.784 215.568 296.549 216.272C296.315 216.976 295.984 217.616 295.557 218.192C295.152 218.789 294.651 219.312 294.053 219.76C293.477 220.208 292.827 220.549 292.101 220.784L288.453 222.032L287.749 219.824L291.589 218.544C292.507 218.224 293.243 217.68 293.797 216.912C294.373 216.165 294.661 215.301 294.661 214.32V213.744C294.491 213.851 294.288 213.925 294.053 213.968C293.84 213.989 293.616 214 293.381 214H290.085C289.424 214 288.805 213.861 288.229 213.584C287.675 213.307 287.205 212.933 286.821 212.464C286.437 211.995 286.16 211.461 285.989 210.864C285.84 210.245 285.829 209.616 285.957 208.976L286.501 206.064C286.587 205.573 286.757 205.125 287.013 204.72C287.269 204.293 287.579 203.931 287.941 203.632C288.304 203.333 288.709 203.099 289.157 202.928C289.627 202.757 290.117 202.672 290.629 202.672H292.421C293.04 202.672 293.616 202.789 294.149 203.024C294.704 203.259 295.184 203.579 295.589 203.984C295.995 204.368 296.315 204.837 296.549 205.392C296.784 205.925 296.901 206.501 296.901 207.12V214.096ZM294.693 211.376V207.12C294.693 206.565 294.491 206.096 294.085 205.712C293.701 205.307 293.232 205.104 292.677 205.104H290.565C290.075 205.104 289.648 205.253 289.285 205.552C288.923 205.851 288.688 206.245 288.581 206.736L288.101 209.296C287.995 209.851 288.123 210.341 288.485 210.768C288.848 211.173 289.307 211.376 289.861 211.376H294.693ZM307.991 213.552C307.991 213.851 307.841 214 307.543 214H306.359C305.697 214 305.068 213.872 304.471 213.616C303.873 213.36 303.351 213.008 302.903 212.56C302.455 212.112 302.103 211.589 301.847 210.992C301.591 210.395 301.463 209.765 301.463 209.104V192.912H303.671V209.072C303.671 209.712 303.895 210.256 304.343 210.704C304.812 211.152 305.356 211.376 305.975 211.376H307.543C307.671 211.376 307.777 211.429 307.863 211.536C307.948 211.621 307.991 211.728 307.991 211.856V213.552ZM309.579 220.56H312.299V217.84H309.579V220.56ZM313.963 220.56H316.683V217.84H313.963V220.56ZM319.051 213.552C319.051 213.851 318.902 214 318.603 214H316.619C316.257 214 315.894 213.947 315.531 213.84C315.169 213.733 314.827 213.584 314.507 213.392C314.187 213.2 313.91 212.976 313.675 212.72C313.441 212.464 313.281 212.187 313.195 211.888C312.833 212.507 312.31 213.019 311.627 213.424C310.966 213.808 310.262 214 309.515 214H307.531C307.233 214 307.083 213.851 307.083 213.552V211.856C307.083 211.728 307.126 211.621 307.211 211.536C307.297 211.429 307.403 211.376 307.531 211.376H309.611C310.23 211.376 310.763 211.184 311.211 210.8C311.681 210.416 311.979 209.936 312.107 209.36L313.099 204.304L315.275 204.656L314.443 208.88C314.379 209.2 314.39 209.52 314.475 209.84C314.561 210.139 314.71 210.405 314.923 210.64C315.137 210.853 315.393 211.035 315.691 211.184C315.99 211.312 316.31 211.376 316.651 211.376H318.603C318.731 211.376 318.838 211.429 318.923 211.536C319.009 211.621 319.051 211.728 319.051 211.856V213.552ZM327.074 214C326.306 214 325.591 213.829 324.93 213.488C324.268 213.125 323.724 212.592 323.298 211.888C322.871 212.592 322.327 213.125 321.666 213.488C321.004 213.829 320.29 214 319.522 214H318.594C318.295 214 318.146 213.851 318.146 213.552V211.824C318.146 211.696 318.199 211.589 318.306 211.504C318.391 211.419 318.487 211.376 318.594 211.376H319.906C320.546 211.376 321.09 211.152 321.538 210.704C321.986 210.256 322.21 209.712 322.21 209.072V204.08H324.418V209.104C324.418 209.744 324.642 210.288 325.09 210.736C325.538 211.163 326.071 211.376 326.69 211.376H327.266C327.884 211.376 328.428 211.195 328.898 210.832C329.367 210.448 329.655 209.957 329.762 209.36L330.786 204.304L332.93 204.688L332.098 208.88C331.97 209.563 332.13 210.149 332.578 210.64C333.047 211.131 333.623 211.376 334.306 211.376H337.058V203.184H339.266V211.12C339.266 211.995 338.999 212.699 338.466 213.232C337.932 213.744 337.239 214 336.386 214H334.274C333.57 214 332.898 213.819 332.258 213.456C331.618 213.093 331.138 212.571 330.818 211.888C330.391 212.613 329.847 213.147 329.186 213.488C328.524 213.829 327.82 214 327.074 214ZM353.247 204.144V209.168C353.247 209.787 353.471 210.309 353.919 210.736C354.388 211.163 354.932 211.376 355.551 211.376H358.751C358.879 211.376 358.986 211.429 359.071 211.536C359.156 211.621 359.199 211.728 359.199 211.856V213.552C359.199 213.851 359.05 214 358.751 214H355.935C355.423 214 354.922 213.893 354.431 213.68C353.94 213.467 353.546 213.147 353.247 212.72V214.128C353.247 214.875 353.13 215.589 352.895 216.272C352.66 216.976 352.33 217.616 351.903 218.192C351.498 218.768 350.996 219.269 350.399 219.696C349.802 220.144 349.151 220.485 348.447 220.72L344.799 222L344.095 219.792L347.967 218.512C348.906 218.213 349.652 217.669 350.207 216.88C350.762 216.091 351.039 215.216 351.039 214.256V204.144H353.247ZM360.798 200.496H363.518V197.776H360.798V200.496ZM365.182 200.496H367.902V197.776H365.182V200.496ZM370.27 213.552C370.27 213.851 370.121 214 369.822 214H367.838C367.475 214 367.113 213.947 366.75 213.84C366.387 213.733 366.046 213.584 365.726 213.392C365.406 213.2 365.129 212.976 364.894 212.72C364.659 212.464 364.499 212.187 364.414 211.888C364.051 212.507 363.529 213.019 362.846 213.424C362.185 213.808 361.481 214 360.734 214H358.75C358.451 214 358.302 213.851 358.302 213.552V211.856C358.302 211.728 358.345 211.621 358.43 211.536C358.515 211.429 358.622 211.376 358.75 211.376H360.83C361.449 211.376 361.982 211.184 362.43 210.8C362.899 210.416 363.198 209.936 363.326 209.36L364.318 204.304L366.494 204.656L365.662 208.88C365.598 209.2 365.609 209.52 365.694 209.84C365.779 210.139 365.929 210.405 366.142 210.64C366.355 210.853 366.611 211.035 366.91 211.184C367.209 211.312 367.529 211.376 367.87 211.376H369.822C369.95 211.376 370.057 211.429 370.142 211.536C370.227 211.621 370.27 211.728 370.27 211.856V213.552ZM378.389 214C377.599 214 376.874 213.829 376.213 213.488C375.551 213.125 374.997 212.592 374.549 211.888C374.101 212.592 373.546 213.125 372.885 213.488C372.223 213.829 371.498 214 370.709 214H369.812C369.684 214 369.578 213.957 369.492 213.872C369.407 213.765 369.364 213.659 369.364 213.552V211.824C369.364 211.696 369.418 211.589 369.524 211.504C369.61 211.419 369.706 211.376 369.812 211.376H371.093C371.733 211.376 372.277 211.152 372.725 210.704C373.194 210.256 373.429 209.712 373.429 209.072V204.08H375.637V209.136C375.637 209.755 375.861 210.288 376.309 210.736C376.778 211.163 377.322 211.376 377.941 211.376H378.517C379.135 211.376 379.679 211.195 380.149 210.832C380.639 210.448 380.938 209.947 381.045 209.328L382.005 204.304L384.213 204.656L383.349 208.88C383.285 209.221 383.295 209.541 383.381 209.84C383.487 210.139 383.647 210.405 383.861 210.64C384.074 210.853 384.33 211.035 384.629 211.184C384.949 211.312 385.301 211.376 385.685 211.376H386.005C386.645 211.376 387.189 211.152 387.637 210.704C388.085 210.256 388.309 209.712 388.309 209.072V203.152H390.517V209.232C390.559 209.851 390.805 210.363 391.253 210.768C391.701 211.173 392.234 211.376 392.853 211.376H394.133C394.239 211.376 394.335 211.419 394.421 211.504C394.527 211.589 394.581 211.696 394.581 211.824V213.552C394.581 213.659 394.538 213.765 394.453 213.872C394.367 213.957 394.261 214 394.133 214H393.237C392.447 214 391.722 213.829 391.061 213.488C390.399 213.125 389.855 212.592 389.429 211.888C388.981 212.592 388.415 213.125 387.733 213.488C387.071 213.829 386.357 214 385.589 214C384.863 214 384.181 213.84 383.541 213.52C382.922 213.179 382.442 212.635 382.101 211.888C381.674 212.613 381.13 213.147 380.469 213.488C379.807 213.829 379.114 214 378.389 214ZM396.845 205.04L395.245 203.536L403.629 193.712L405.229 195.184L398.893 202.64H411.501C412.12 202.64 412.706 202.757 413.261 202.992C413.816 203.227 414.296 203.547 414.701 203.952C415.106 204.357 415.426 204.837 415.661 205.392C415.896 205.947 416.013 206.533 416.013 207.152V209.52C416.013 210.139 415.885 210.725 415.629 211.28C415.394 211.813 415.064 212.283 414.637 212.688C414.232 213.093 413.752 213.413 413.197 213.648C412.664 213.883 412.088 214 411.469 214H394.125C393.997 214 393.89 213.957 393.805 213.872C393.72 213.765 393.677 213.648 393.677 213.52V211.824C393.677 211.525 393.826 211.376 394.125 211.376H411.789C412.344 211.376 412.813 211.184 413.197 210.8C413.602 210.416 413.805 209.936 413.805 209.36V207.216C413.805 206.619 413.592 206.107 413.165 205.68C412.738 205.253 412.226 205.04 411.629 205.04H396.845ZM414.486 221.968L413.782 219.792L417.687 218.512C418.583 218.213 419.308 217.669 419.863 216.88C420.439 216.091 420.727 215.216 420.727 214.256V204.112H422.903V214.064C422.903 214.811 422.785 215.525 422.551 216.208C422.337 216.912 422.017 217.552 421.591 218.128C421.185 218.725 420.684 219.237 420.087 219.664C419.511 220.112 418.871 220.464 418.167 220.72L414.486 221.968ZM429.921 214H427.713V192.912H429.921V214Z" fill="#E6E6E6"/>
<path d="M105.344 250.524C105.68 250.524 105.962 250.41 106.19 250.182C106.418 249.954 106.532 249.678 106.532 249.354V248.238C106.532 247.89 106.412 247.596 106.172 247.356C105.932 247.116 105.638 246.996 105.29 246.996H104.066C103.706 246.996 103.358 247.068 103.022 247.212C102.698 247.344 102.41 247.542 102.158 247.806L99.6202 250.524H105.344ZM97.0102 250.524H98.0002L99.9982 248.382V240.138H101.24V246.438C101.24 246.63 101.222 246.804 101.186 246.96C101.15 247.104 101.126 247.176 101.114 247.176C101.126 247.164 101.15 247.14 101.186 247.104C101.234 247.056 101.282 247.008 101.33 246.96C101.39 246.9 101.444 246.84 101.492 246.78C101.552 246.72 101.6 246.672 101.636 246.636C101.96 246.312 102.338 246.066 102.77 245.898C103.202 245.718 103.658 245.628 104.138 245.628H105.254C105.602 245.628 105.926 245.694 106.226 245.826C106.538 245.958 106.808 246.138 107.036 246.366C107.264 246.582 107.444 246.846 107.576 247.158C107.708 247.458 107.774 247.782 107.774 248.13V249.228C107.774 249.6 107.9 249.912 108.152 250.164C108.416 250.404 108.728 250.524 109.088 250.524H109.682C109.742 250.524 109.796 250.548 109.844 250.596C109.904 250.644 109.934 250.704 109.934 250.776V251.748C109.934 251.808 109.904 251.868 109.844 251.928C109.796 251.976 109.742 252 109.682 252H109.304C108.872 252 108.47 251.904 108.098 251.712C107.738 251.508 107.438 251.22 107.198 250.848C106.958 251.22 106.664 251.508 106.316 251.712C105.98 251.904 105.602 252 105.182 252H97.0102V250.524ZM110.84 255.69H112.37V254.16H110.84V255.69ZM113.306 255.69H114.836V254.16H113.306V255.69ZM116.168 251.748C116.168 251.916 116.084 252 115.916 252H114.8C114.596 252 114.392 251.97 114.188 251.91C113.984 251.85 113.792 251.766 113.612 251.658C113.432 251.55 113.276 251.424 113.144 251.28C113.012 251.136 112.922 250.98 112.874 250.812C112.67 251.16 112.376 251.448 111.992 251.676C111.62 251.892 111.224 252 110.804 252H109.688C109.519 252 109.435 251.916 109.435 251.748V250.794C109.435 250.722 109.459 250.662 109.507 250.614C109.555 250.554 109.615 250.524 109.688 250.524H110.858C111.206 250.524 111.506 250.416 111.758 250.2C112.022 249.984 112.19 249.714 112.262 249.39L112.82 246.546L114.044 246.744L113.576 249.12C113.54 249.3 113.546 249.48 113.594 249.66C113.642 249.828 113.726 249.978 113.846 250.11C113.966 250.23 114.11 250.332 114.278 250.416C114.446 250.488 114.626 250.524 114.818 250.524H115.916C115.988 250.524 116.048 250.554 116.096 250.614C116.144 250.662 116.168 250.722 116.168 250.794V251.748ZM121.886 250.524C122.054 250.524 122.138 250.608 122.138 250.776V251.748C122.138 251.916 122.054 252 121.886 252H121.076C120.644 252 120.242 251.904 119.87 251.712C119.498 251.52 119.186 251.268 118.934 250.956C118.694 251.268 118.388 251.52 118.016 251.712C117.644 251.904 117.236 252 116.792 252H115.91C115.742 252 115.658 251.916 115.658 251.748V250.776C115.658 250.608 115.742 250.524 115.91 250.524H117.026C117.374 250.524 117.674 250.398 117.926 250.146C118.19 249.894 118.322 249.588 118.322 249.228V240.138H119.564V249.318C119.576 249.654 119.708 249.942 119.96 250.182C120.212 250.41 120.512 250.524 120.86 250.524H121.886ZM123.705 250.524C124.065 250.524 124.371 250.398 124.623 250.146C124.875 249.882 125.001 249.576 125.001 249.228V245.934H126.243V249.246C126.243 249.63 126.171 249.99 126.027 250.326C125.883 250.662 125.685 250.956 125.433 251.208C125.181 251.448 124.887 251.64 124.551 251.784C124.227 251.928 123.873 252 123.489 252H121.887C121.719 252 121.635 251.916 121.635 251.748V250.794C121.635 250.722 121.659 250.662 121.707 250.614C121.755 250.554 121.815 250.524 121.887 250.524H123.705ZM122.229 255.69H123.759V254.16H122.229V255.69ZM139.772 250.524H140.15C140.222 250.524 140.282 250.554 140.33 250.614C140.378 250.662 140.402 250.722 140.402 250.794V251.748C140.402 251.916 140.318 252 140.15 252H139.808C139.352 252 138.938 251.886 138.566 251.658C138.194 251.418 137.894 251.082 137.666 250.65C137.426 251.082 137.102 251.418 136.694 251.658C136.298 251.886 135.872 252 135.416 252H132.95C132.686 252 132.434 251.952 132.194 251.856C131.966 251.748 131.762 251.604 131.582 251.424C131.414 251.244 131.276 251.04 131.168 250.812C131.072 250.572 131.024 250.32 131.024 250.056V248.148H132.086V249.732C132.086 249.948 132.146 250.134 132.266 250.29C132.386 250.446 132.566 250.524 132.806 250.524H135.434C135.686 250.524 135.914 250.47 136.118 250.362C136.322 250.254 136.49 250.11 136.622 249.93C136.766 249.75 136.862 249.552 136.91 249.336C136.958 249.108 136.952 248.88 136.892 248.652L135.56 243.81L136.73 243.378L138.44 249.498C138.524 249.798 138.686 250.044 138.926 250.236C139.178 250.428 139.46 250.524 139.772 250.524ZM142.328 250.524C142.688 250.524 142.994 250.398 143.246 250.146C143.498 249.894 143.624 249.594 143.624 249.246V245.934H144.866V249.246C144.866 249.63 144.794 249.99 144.65 250.326C144.506 250.662 144.308 250.956 144.056 251.208C143.804 251.448 143.51 251.64 143.174 251.784C142.85 251.928 142.496 252 142.112 252H140.15C139.982 252 139.898 251.916 139.898 251.748V250.794C139.898 250.722 139.922 250.662 139.97 250.614C140.018 250.554 140.078 250.524 140.15 250.524H142.328ZM140.222 255.69H141.752V254.16H140.222V255.69ZM142.688 255.69H144.218V254.16H142.688V255.69ZM149.922 246.456V249.282C149.922 249.63 150.048 249.924 150.3 250.164C150.564 250.404 150.87 250.524 151.218 250.524H153.018C153.09 250.524 153.15 250.554 153.198 250.614C153.246 250.662 153.27 250.722 153.27 250.794V251.748C153.27 251.916 153.186 252 153.018 252H151.434C151.146 252 150.864 251.94 150.588 251.82C150.312 251.7 150.09 251.52 149.922 251.28V252.072C149.922 252.492 149.856 252.894 149.724 253.278C149.592 253.674 149.406 254.034 149.166 254.358C148.938 254.682 148.656 254.964 148.32 255.204C147.984 255.456 147.618 255.648 147.222 255.78L145.17 256.5L144.774 255.258L146.952 254.538C147.48 254.37 147.9 254.064 148.212 253.62C148.524 253.176 148.68 252.684 148.68 252.144V246.456H149.922ZM155.754 242.982H157.284V241.452H155.754V242.982ZM152.766 250.794C152.766 250.734 152.79 250.674 152.838 250.614C152.886 250.554 152.946 250.524 153.018 250.524H155.952C156.528 250.524 157.08 250.428 157.608 250.236C158.148 250.044 158.628 249.756 159.048 249.372L160.632 247.896C160.776 247.764 160.884 247.68 160.956 247.644L156.654 246.366C156.426 246.294 156.21 246.318 156.006 246.438C155.814 246.546 155.682 246.708 155.61 246.924L155.142 248.364L154.062 248.058L154.476 246.636C154.56 246.348 154.692 246.096 154.872 245.88C155.064 245.652 155.28 245.472 155.52 245.34C155.772 245.208 156.036 245.13 156.312 245.106C156.6 245.07 156.882 245.094 157.158 245.178L164.106 247.266L163.728 248.472L163.008 248.256C162.648 248.184 162.354 248.196 162.126 248.292C161.898 248.388 161.67 248.538 161.442 248.742L159.354 250.668C158.874 251.1 158.328 251.43 157.716 251.658C157.116 251.886 156.492 252 155.844 252H153.018C152.85 252 152.766 251.916 152.766 251.748V250.794ZM168.887 246.366H174.323V247.752H168.887V246.366ZM179.94 252V244.566C179.94 244.002 179.91 243.45 179.85 242.91C179.79 242.358 179.706 241.806 179.598 241.254L179.364 240.192L180.588 239.958L180.822 241.182C181.05 242.286 181.164 243.42 181.164 244.584V252H179.94ZM192.684 244.944C192.492 244.968 192.168 245.016 191.712 245.088C191.268 245.16 190.77 245.232 190.218 245.304C189.666 245.376 189.108 245.442 188.544 245.502C187.98 245.55 187.482 245.574 187.05 245.574C186.798 245.574 186.552 245.532 186.312 245.448C186.084 245.364 185.868 245.22 185.664 245.016V252H184.422V244.584C184.422 243.864 184.362 243.132 184.242 242.388C184.134 241.632 184.008 240.9 183.864 240.192L185.07 239.976C185.154 240.36 185.244 240.828 185.34 241.38C185.448 241.92 185.532 242.478 185.592 243.054C185.652 243.366 185.796 243.624 186.024 243.828C186.264 244.032 186.54 244.134 186.852 244.134H187.644C187.56 243.99 187.5 243.828 187.464 243.648C187.464 243.648 187.452 243.588 187.428 243.468C187.404 243.348 187.38 243.21 187.356 243.054C187.332 242.886 187.302 242.724 187.266 242.568C187.242 242.4 187.218 242.268 187.194 242.172C187.122 241.8 187.134 241.446 187.23 241.11C187.338 240.774 187.5 240.48 187.716 240.228C187.932 239.964 188.196 239.754 188.508 239.598C188.82 239.442 189.156 239.364 189.516 239.364H191.928L191.91 240.696H189.372C189.024 240.696 188.754 240.822 188.562 241.074C188.382 241.314 188.322 241.59 188.382 241.902L188.796 244.062C189.072 244.038 189.414 244.008 189.822 243.972C190.242 243.936 190.65 243.9 191.046 243.864C191.514 243.816 191.994 243.762 192.486 243.702L192.684 244.944ZM198.424 245.124C198.772 245.124 199.096 245.19 199.396 245.322C199.708 245.454 199.978 245.634 200.206 245.862C200.434 246.09 200.614 246.36 200.746 246.672C200.878 246.972 200.944 247.296 200.944 247.644V248.562C200.944 248.898 200.878 249.222 200.746 249.534C200.614 249.834 200.434 250.098 200.206 250.326C199.978 250.554 199.708 250.734 199.396 250.866C199.096 250.998 198.772 251.064 198.424 251.064H197.542C197.194 251.064 196.864 250.998 196.552 250.866C196.252 250.734 195.988 250.554 195.76 250.326C195.532 250.098 195.352 249.834 195.22 249.534C195.088 249.222 195.022 248.898 195.022 248.562V247.644C195.022 247.296 195.088 246.972 195.22 246.672C195.352 246.36 195.532 246.09 195.76 245.862C195.988 245.634 196.252 245.454 196.552 245.322C196.864 245.19 197.194 245.124 197.542 245.124H198.424ZM199.666 248.472V247.626C199.666 247.302 199.552 247.032 199.324 246.816C199.108 246.6 198.838 246.492 198.514 246.492H197.452C197.14 246.492 196.87 246.6 196.642 246.816C196.426 247.032 196.318 247.302 196.318 247.626V248.472C196.318 248.784 196.426 249.054 196.642 249.282C196.87 249.498 197.14 249.606 197.452 249.606H198.514C198.838 249.606 199.108 249.498 199.324 249.282C199.552 249.054 199.666 248.784 199.666 248.472ZM204.039 252V244.566C204.039 244.002 204.009 243.45 203.949 242.91C203.889 242.358 203.805 241.806 203.697 241.254L203.463 240.192L204.687 239.958L204.921 241.182C205.149 242.286 205.263 243.42 205.263 244.584V252H204.039ZM211.993 247.5C211.861 247.608 211.753 247.728 211.669 247.86C211.597 247.992 211.555 248.166 211.543 248.382V249.066C211.543 249.282 211.585 249.492 211.669 249.696C211.753 249.9 211.867 250.08 212.011 250.236C212.167 250.38 212.347 250.5 212.551 250.596C212.755 250.68 212.971 250.722 213.199 250.722H213.703C213.943 250.722 214.165 250.674 214.369 250.578C214.573 250.482 214.747 250.362 214.891 250.218C215.035 250.062 215.149 249.888 215.233 249.696C215.317 249.492 215.359 249.288 215.359 249.084V248.4C215.359 248.232 215.317 248.07 215.233 247.914C215.161 247.746 215.041 247.602 214.873 247.482C214.825 247.446 214.723 247.38 214.567 247.284C214.411 247.176 214.249 247.068 214.081 246.96C213.889 246.828 213.673 246.684 213.433 246.528L211.993 247.5ZM211.867 243.918C212.047 244.038 212.239 244.17 212.443 244.314C212.611 244.434 212.803 244.566 213.019 244.71C213.247 244.854 213.481 245.01 213.721 245.178C214.261 245.55 214.879 245.97 215.575 246.438C215.911 246.678 216.163 246.984 216.331 247.356C216.511 247.728 216.601 248.124 216.601 248.544V249.192C216.601 249.576 216.529 249.948 216.385 250.308C216.241 250.668 216.037 250.986 215.773 251.262C215.509 251.538 215.191 251.76 214.819 251.928C214.459 252.084 214.063 252.162 213.631 252.162H213.253C212.821 252.162 212.425 252.084 212.065 251.928C211.705 251.76 211.393 251.538 211.129 251.262C210.877 250.986 210.673 250.668 210.517 250.308C210.373 249.948 210.301 249.576 210.301 249.192V248.58C210.301 248.112 210.397 247.692 210.589 247.32C210.793 246.936 211.057 246.642 211.381 246.438C211.513 246.354 211.639 246.276 211.759 246.204C211.879 246.132 211.987 246.066 212.083 246.006C212.191 245.934 212.299 245.862 212.407 245.79L211.201 244.98L211.867 243.918ZM222.727 251.748C222.727 251.916 222.643 252 222.475 252H221.809C221.437 252 221.083 251.928 220.747 251.784C220.411 251.64 220.117 251.442 219.865 251.19C219.613 250.938 219.415 250.644 219.271 250.308C219.127 249.972 219.055 249.618 219.055 249.246V240.138H220.297V249.228C220.297 249.588 220.423 249.894 220.675 250.146C220.939 250.398 221.245 250.524 221.593 250.524H222.475C222.547 250.524 222.607 250.554 222.655 250.614C222.703 250.662 222.727 250.722 222.727 250.794V251.748ZM226.681 250.524H229.417V248.112C229.417 247.8 229.303 247.536 229.075 247.32C228.859 247.092 228.589 246.978 228.265 246.978H227.095C226.819 246.978 226.579 247.068 226.375 247.248C226.171 247.416 226.039 247.632 225.979 247.896L225.709 249.354C225.649 249.666 225.715 249.942 225.907 250.182C226.111 250.41 226.369 250.524 226.681 250.524ZM224.431 249.39L224.809 247.536C224.857 247.26 224.953 247.002 225.097 246.762C225.241 246.522 225.415 246.318 225.619 246.15C225.823 245.982 226.051 245.85 226.303 245.754C226.567 245.658 226.843 245.61 227.131 245.61H228.139C228.487 245.61 228.811 245.676 229.111 245.808C229.423 245.94 229.693 246.12 229.921 246.348C230.149 246.576 230.329 246.84 230.461 247.14C230.593 247.44 230.659 247.764 230.659 248.112V250.38C230.659 250.86 230.509 251.25 230.209 251.55C229.921 251.85 229.525 252 229.021 252H226.825C226.441 252 226.087 251.91 225.763 251.73C225.451 251.538 225.193 251.232 224.989 250.812C224.773 251.232 224.485 251.538 224.125 251.73C223.765 251.91 223.387 252 222.991 252H222.469C222.301 252 222.217 251.916 222.217 251.748V250.776C222.217 250.716 222.241 250.662 222.289 250.614C222.337 250.554 222.397 250.524 222.469 250.524H223.045C223.393 250.524 223.693 250.416 223.945 250.2C224.209 249.984 224.371 249.714 224.431 249.39ZM234.543 246.456V249.282C234.543 249.63 234.669 249.924 234.921 250.164C235.185 250.404 235.491 250.524 235.839 250.524H237.639C237.711 250.524 237.771 250.554 237.819 250.614C237.867 250.662 237.891 250.722 237.891 250.794V251.748C237.891 251.916 237.807 252 237.639 252H236.055C235.767 252 235.485 251.94 235.209 251.82C234.933 251.7 234.711 251.52 234.543 251.28V252.072C234.543 252.492 234.477 252.894 234.345 253.278C234.213 253.674 234.027 254.034 233.787 254.358C233.559 254.682 233.277 254.964 232.941 255.204C232.605 255.456 232.239 255.648 231.843 255.78L229.791 256.5L229.395 255.258L231.573 254.538C232.101 254.37 232.521 254.064 232.833 253.62C233.145 253.176 233.301 252.684 233.301 252.144V246.456H234.543ZM238.791 255.69H240.321V254.16H238.791V255.69ZM241.257 255.69H242.787V254.16H241.257V255.69ZM244.119 251.748C244.119 251.916 244.035 252 243.867 252H242.751C242.547 252 242.343 251.97 242.139 251.91C241.935 251.85 241.743 251.766 241.563 251.658C241.383 251.55 241.227 251.424 241.095 251.28C240.963 251.136 240.873 250.98 240.825 250.812C240.621 251.16 240.327 251.448 239.943 251.676C239.571 251.892 239.175 252 238.755 252H237.639C237.471 252 237.387 251.916 237.387 251.748V250.794C237.387 250.722 237.411 250.662 237.459 250.614C237.507 250.554 237.567 250.524 237.639 250.524H238.809C239.157 250.524 239.457 250.416 239.709 250.2C239.973 249.984 240.141 249.714 240.213 249.39L240.771 246.546L241.995 246.744L241.527 249.12C241.491 249.3 241.497 249.48 241.545 249.66C241.593 249.828 241.677 249.978 241.797 250.11C241.917 250.23 242.061 250.332 242.229 250.416C242.397 250.488 242.577 250.524 242.769 250.524H243.867C243.939 250.524 243.999 250.554 244.047 250.614C244.095 250.662 244.119 250.722 244.119 250.794V251.748ZM246.039 250.524C246.399 250.524 246.705 250.398 246.957 250.146C247.209 249.894 247.335 249.594 247.335 249.246V245.934H248.577V249.246C248.577 249.63 248.505 249.99 248.361 250.326C248.217 250.662 248.019 250.956 247.767 251.208C247.515 251.448 247.221 251.64 246.885 251.784C246.561 251.928 246.207 252 245.823 252H243.861C243.693 252 243.609 251.916 243.609 251.748V250.794C243.609 250.722 243.633 250.662 243.681 250.614C243.729 250.554 243.789 250.524 243.861 250.524H246.039ZM244.563 243.828H246.093V242.298H244.563V243.828ZM247.029 243.828H248.559V242.298H247.029V243.828ZM253.368 246.366H258.804V247.752H253.368V246.366ZM262.17 256.482L261.774 255.258L263.97 254.538C264.474 254.37 264.882 254.064 265.194 253.62C265.518 253.176 265.68 252.684 265.68 252.144V246.438H266.904V252.036C266.904 252.456 266.838 252.858 266.706 253.242C266.586 253.638 266.406 253.998 266.166 254.322C265.938 254.658 265.656 254.946 265.32 255.186C264.996 255.438 264.636 255.636 264.24 255.78L262.17 256.482ZM271.806 252C271.434 252 271.092 251.922 270.78 251.766C270.468 251.61 270.204 251.4 269.988 251.136C269.772 250.872 269.616 250.572 269.52 250.236C269.424 249.888 269.412 249.534 269.484 249.174L269.79 247.536C269.838 247.26 269.934 247.008 270.078 246.78C270.222 246.54 270.396 246.336 270.6 246.168C270.804 246 271.032 245.868 271.284 245.772C271.548 245.676 271.824 245.628 272.112 245.628H273.12C273.468 245.628 273.792 245.694 274.092 245.826C274.404 245.958 274.674 246.138 274.902 246.366C275.13 246.582 275.31 246.846 275.442 247.158C275.574 247.458 275.64 247.782 275.64 248.13V250.524H277.062C277.134 250.524 277.194 250.554 277.242 250.614C277.29 250.662 277.314 250.716 277.314 250.776V251.748C277.314 251.916 277.23 252 277.062 252H275.622V252.216C275.598 253.032 275.34 253.764 274.848 254.412C274.368 255.072 273.732 255.54 272.94 255.816L270.888 256.518L270.492 255.276L272.652 254.556C273.168 254.376 273.582 254.07 273.894 253.638C274.218 253.218 274.38 252.732 274.38 252.18V251.856C274.284 251.916 274.17 251.958 274.038 251.982C273.918 251.994 273.792 252 273.66 252H271.806ZM271.68 250.524H274.398V248.13C274.398 247.818 274.284 247.554 274.056 247.338C273.84 247.11 273.576 246.996 273.264 246.996H272.076C271.8 246.996 271.56 247.08 271.356 247.248C271.152 247.416 271.02 247.638 270.96 247.914L270.69 249.354C270.63 249.666 270.702 249.942 270.906 250.182C271.11 250.41 271.368 250.524 271.68 250.524ZM281.908 252C281.464 252 281.056 251.904 280.684 251.712C280.312 251.508 280 251.208 279.748 250.812C279.496 251.208 279.184 251.508 278.812 251.712C278.44 251.904 278.032 252 277.588 252H277.066C276.994 252 276.934 251.976 276.886 251.928C276.838 251.868 276.814 251.808 276.814 251.748V250.776C276.814 250.704 276.844 250.644 276.904 250.596C276.952 250.548 277.006 250.524 277.066 250.524H277.804C278.164 250.524 278.47 250.398 278.722 250.146C278.986 249.894 279.118 249.588 279.118 249.228V246.42H280.36V249.282C280.36 249.63 280.486 249.93 280.738 250.182C281.002 250.422 281.308 250.542 281.656 250.542H281.98C282.328 250.542 282.634 250.434 282.898 250.218C283.174 250.002 283.342 249.72 283.402 249.372L283.942 246.546L285.184 246.744L284.716 249.12C284.68 249.324 284.686 249.516 284.734 249.696C284.782 249.864 284.866 250.014 284.986 250.146C285.106 250.266 285.256 250.362 285.436 250.434C285.616 250.506 285.808 250.542 286.012 250.542H286.192C286.552 250.542 286.858 250.416 287.11 250.164C287.362 249.9 287.488 249.588 287.488 249.228V245.898H288.73V249.318C288.754 249.666 288.892 249.954 289.144 250.182C289.396 250.41 289.696 250.524 290.044 250.524H290.764C290.824 250.524 290.878 250.548 290.926 250.596C290.986 250.644 291.016 250.704 291.016 250.776V251.748C291.016 251.808 290.992 251.868 290.944 251.928C290.896 251.976 290.836 252 290.764 252H290.26C289.816 252 289.408 251.904 289.036 251.712C288.664 251.508 288.358 251.208 288.118 250.812C287.866 251.208 287.548 251.508 287.164 251.712C286.792 251.904 286.396 252 285.976 252C285.556 252 285.166 251.91 284.806 251.73C284.458 251.538 284.188 251.232 283.996 250.812C283.756 251.22 283.45 251.52 283.078 251.712C282.706 251.904 282.316 252 281.908 252ZM285.958 244.404H284.428V242.874H285.958V244.404ZM283.492 244.404H281.962V242.874H283.492V244.404ZM284.662 242.208H283.132V240.678H284.662V242.208ZM292.29 246.96L291.39 246.114L296.106 240.588L297.006 241.416L293.442 245.61H300.534C300.882 245.61 301.212 245.676 301.524 245.808C301.836 245.94 302.106 246.12 302.334 246.348C302.562 246.576 302.742 246.846 302.874 247.158C303.006 247.47 303.072 247.8 303.072 248.148V249.48C303.072 249.828 303 250.158 302.856 250.47C302.724 250.77 302.538 251.034 302.298 251.262C302.07 251.49 301.8 251.67 301.488 251.802C301.188 251.934 300.864 252 300.516 252H290.76C290.688 252 290.628 251.976 290.58 251.928C290.532 251.868 290.508 251.802 290.508 251.73V250.776C290.508 250.608 290.592 250.524 290.76 250.524H300.696C301.008 250.524 301.272 250.416 301.488 250.2C301.716 249.984 301.83 249.714 301.83 249.39V248.184C301.83 247.848 301.71 247.56 301.47 247.32C301.23 247.08 300.942 246.96 300.606 246.96H292.29ZM317.04 249.498C317.424 249.582 317.73 249.756 317.958 250.02C318.186 250.284 318.3 250.608 318.3 250.992V251.712C318.3 252.156 318.216 252.576 318.048 252.972C317.88 253.368 317.646 253.71 317.346 253.998C317.058 254.298 316.716 254.532 316.32 254.7C315.936 254.868 315.522 254.952 315.078 254.952H311.442C310.95 254.952 310.482 254.856 310.038 254.664C309.606 254.472 309.228 254.214 308.904 253.89C308.58 253.566 308.322 253.182 308.13 252.738C307.938 252.306 307.842 251.838 307.842 251.334V247.194H309.084V251.136C309.084 251.46 309.144 251.76 309.264 252.036C309.384 252.324 309.552 252.57 309.768 252.774C309.984 252.99 310.236 253.158 310.524 253.278C310.812 253.41 311.118 253.476 311.442 253.476H315.132C315.396 253.476 315.642 253.422 315.87 253.314C316.11 253.218 316.314 253.08 316.482 252.9C316.662 252.732 316.8 252.528 316.896 252.288C317.004 252.048 317.058 251.796 317.058 251.532V250.83L312.144 249.678V247.77C312.144 247.338 312.216 246.936 312.36 246.564C312.516 246.18 312.726 245.844 312.99 245.556C313.254 245.268 313.554 245.034 313.89 244.854C314.238 244.674 314.61 244.56 315.006 244.512L317.094 244.242L317.292 245.538L314.916 245.862C314.46 245.934 314.082 246.156 313.782 246.528C313.494 246.888 313.35 247.296 313.35 247.752V248.634L317.04 249.498ZM324.504 251.748C324.504 251.916 324.42 252 324.252 252H323.586C323.214 252 322.86 251.928 322.524 251.784C322.188 251.64 321.894 251.442 321.642 251.19C321.39 250.938 321.192 250.644 321.048 250.308C320.904 249.972 320.832 249.618 320.832 249.246V240.138H322.074V249.228C322.074 249.588 322.2 249.894 322.452 250.146C322.716 250.398 323.022 250.524 323.37 250.524H324.252C324.324 250.524 324.384 250.554 324.432 250.614C324.48 250.662 324.504 250.722 324.504 250.794V251.748ZM324.246 252C324.186 252 324.132 251.976 324.084 251.928C324.024 251.88 323.994 251.826 323.994 251.766V250.758C323.994 250.686 324.024 250.632 324.084 250.596C324.132 250.548 324.186 250.524 324.246 250.524H326.136C325.968 250.464 325.836 250.296 325.74 250.02C325.656 249.732 325.644 249.438 325.704 249.138L325.956 247.878C326.016 247.614 326.112 247.368 326.244 247.14C326.388 246.912 326.556 246.72 326.748 246.564C326.952 246.396 327.18 246.27 327.432 246.186C327.684 246.09 327.942 246.042 328.206 246.042H328.872C329.22 246.042 329.538 246.108 329.826 246.24C330.126 246.36 330.384 246.528 330.6 246.744C330.816 246.96 330.984 247.218 331.104 247.518C331.224 247.806 331.284 248.118 331.284 248.454V249.912C331.284 250.104 331.26 250.248 331.212 250.344C331.176 250.44 331.158 250.5 331.158 250.524H334.092V248.004C334.092 247.596 333.984 247.26 333.768 246.996C333.564 246.732 333.3 246.552 332.976 246.456L327.072 244.62L327.414 243.36L333.192 245.16C333.804 245.352 334.314 245.694 334.722 246.186C335.13 246.666 335.334 247.278 335.334 248.022V250.29C335.334 250.83 335.184 251.25 334.884 251.55C334.584 251.85 334.164 252 333.624 252H330.924V251.154C330.9 251.214 330.846 251.292 330.762 251.388C330.69 251.484 330.588 251.58 330.456 251.676C330.324 251.76 330.174 251.838 330.006 251.91C329.838 251.97 329.652 252 329.448 252H324.246ZM330.06 250.524V248.4C330.06 248.1 329.952 247.848 329.736 247.644C329.532 247.428 329.274 247.32 328.962 247.32H328.152C327.9 247.32 327.672 247.404 327.468 247.572C327.276 247.74 327.156 247.95 327.108 248.202L326.874 249.426C326.814 249.738 326.88 250.002 327.072 250.218C327.276 250.422 327.522 250.524 327.81 250.524H330.06ZM358.404 249.318C358.404 249.63 358.536 249.912 358.8 250.164C359.064 250.404 359.37 250.524 359.718 250.524H360.438C360.606 250.524 360.69 250.608 360.69 250.776V251.73C360.69 251.802 360.666 251.868 360.618 251.928C360.57 251.976 360.51 252 360.438 252H359.934C359.49 252 359.082 251.898 358.71 251.694C358.338 251.49 358.032 251.196 357.792 250.812C357.528 251.196 357.204 251.49 356.82 251.694C356.448 251.898 356.052 252 355.632 252C355.212 252 354.828 251.898 354.48 251.694C354.144 251.49 353.874 251.196 353.67 250.812C353.43 251.22 353.13 251.52 352.77 251.712C352.422 251.904 352.038 252 351.618 252C351.342 252 351.06 251.952 350.772 251.856C350.484 251.748 350.232 251.556 350.016 251.28V252.036C350.016 252.468 349.932 252.87 349.764 253.242C349.596 253.614 349.368 253.938 349.08 254.214C348.792 254.502 348.45 254.724 348.054 254.88C347.67 255.048 347.262 255.132 346.83 255.132H343.716C343.224 255.132 342.756 255.036 342.312 254.844C341.88 254.664 341.502 254.412 341.178 254.088C340.854 253.764 340.596 253.38 340.404 252.936C340.212 252.504 340.116 252.036 340.116 251.532V246.726H341.358V251.334C341.358 251.658 341.418 251.958 341.538 252.234C341.658 252.522 341.826 252.768 342.042 252.972C342.258 253.188 342.504 253.356 342.78 253.476C343.068 253.596 343.374 253.656 343.698 253.656H346.812C347.088 253.656 347.346 253.602 347.586 253.494C347.826 253.398 348.03 253.26 348.198 253.08C348.378 252.912 348.516 252.708 348.612 252.468C348.72 252.228 348.774 251.97 348.774 251.694V246.42H350.016V249.228C350.016 249.588 350.148 249.894 350.412 250.146C350.676 250.398 350.982 250.524 351.33 250.524H351.654C352.002 250.524 352.308 250.422 352.572 250.218C352.836 250.002 352.998 249.72 353.058 249.372L353.634 246.546L354.84 246.744L354.372 249.12C354.324 249.504 354.42 249.834 354.66 250.11C354.912 250.386 355.23 250.524 355.614 250.524H355.866C356.226 250.524 356.532 250.398 356.784 250.146C357.036 249.894 357.162 249.588 357.162 249.228V245.898H358.404V249.318ZM355.614 244.422H354.084V242.892H355.614V244.422ZM353.148 244.422H351.618V242.892H353.148V244.422ZM354.336 242.226H352.806V240.696H354.336V242.226ZM362.617 250.524C362.977 250.524 363.283 250.398 363.535 250.146C363.787 249.894 363.913 249.594 363.913 249.246V245.934H365.155V249.246C365.155 249.63 365.083 249.99 364.939 250.326C364.795 250.662 364.597 250.956 364.345 251.208C364.093 251.448 363.799 251.64 363.463 251.784C363.139 251.928 362.785 252 362.401 252H360.439C360.271 252 360.187 251.916 360.187 251.748V250.794C360.187 250.722 360.211 250.662 360.259 250.614C360.307 250.554 360.367 250.524 360.439 250.524H362.617ZM360.511 255.69H362.041V254.16H360.511V255.69ZM362.977 255.69H364.507V254.16H362.977V255.69ZM371.526 251.748C371.526 251.916 371.442 252 371.274 252H370.608C370.236 252 369.882 251.928 369.546 251.784C369.21 251.64 368.916 251.442 368.664 251.19C368.412 250.938 368.214 250.644 368.07 250.308C367.926 249.972 367.854 249.618 367.854 249.246V240.138H369.096V249.228C369.096 249.588 369.222 249.894 369.474 250.146C369.738 250.398 370.044 250.524 370.392 250.524H371.274C371.346 250.524 371.406 250.554 371.454 250.614C371.502 250.662 371.526 250.722 371.526 250.794V251.748ZM371.268 252C371.1 252 371.016 251.916 371.016 251.748V250.776C371.016 250.716 371.04 250.662 371.088 250.614C371.136 250.554 371.196 250.524 371.268 250.524H371.844C372.192 250.524 372.492 250.416 372.744 250.2C373.008 249.984 373.17 249.714 373.23 249.39L373.608 247.536C373.656 247.26 373.752 247.002 373.896 246.762C374.04 246.522 374.214 246.318 374.418 246.15C374.622 245.982 374.85 245.85 375.102 245.754C375.366 245.658 375.642 245.61 375.93 245.61H376.938C377.286 245.61 377.61 245.676 377.91 245.808C378.222 245.94 378.492 246.12 378.72 246.348C378.948 246.576 379.128 246.84 379.26 247.14C379.392 247.44 379.458 247.764 379.458 248.112V249.21C379.458 249.582 379.584 249.894 379.836 250.146C380.088 250.398 380.394 250.524 380.754 250.524H381.33C381.402 250.524 381.462 250.554 381.51 250.614C381.558 250.662 381.582 250.716 381.582 250.776V251.748C381.582 251.916 381.498 252 381.33 252H380.988C380.628 252 380.286 251.928 379.962 251.784C379.638 251.64 379.356 251.412 379.116 251.1C379.02 251.46 378.858 251.7 378.63 251.82C378.402 251.94 378.132 252 377.82 252H375.624C375.24 252 374.886 251.91 374.562 251.73C374.238 251.538 373.98 251.232 373.788 250.812C373.572 251.232 373.284 251.538 372.924 251.73C372.564 251.91 372.186 252 371.79 252H371.268ZM375.48 250.524H378.216V248.112C378.216 247.8 378.102 247.536 377.874 247.32C377.658 247.092 377.388 246.978 377.064 246.978H375.894C375.618 246.978 375.378 247.068 375.174 247.248C374.97 247.416 374.838 247.632 374.778 247.896L374.508 249.354C374.448 249.666 374.514 249.942 374.706 250.182C374.91 250.41 375.168 250.524 375.48 250.524ZM381.322 252C381.262 252 381.208 251.976 381.16 251.928C381.1 251.88 381.07 251.826 381.07 251.766V250.758C381.07 250.686 381.1 250.632 381.16 250.596C381.208 250.548 381.262 250.524 381.322 250.524H383.212C383.044 250.464 382.912 250.296 382.816 250.02C382.732 249.732 382.72 249.438 382.78 249.138L383.032 247.878C383.092 247.614 383.188 247.368 383.32 247.14C383.464 246.912 383.632 246.72 383.824 246.564C384.028 246.396 384.256 246.27 384.508 246.186C384.76 246.09 385.018 246.042 385.282 246.042H385.948C386.296 246.042 386.614 246.108 386.902 246.24C387.202 246.36 387.46 246.528 387.676 246.744C387.892 246.96 388.06 247.218 388.18 247.518C388.3 247.806 388.36 248.118 388.36 248.454V249.912C388.36 250.104 388.336 250.248 388.288 250.344C388.252 250.44 388.234 250.5 388.234 250.524H391.168V248.004C391.168 247.596 391.06 247.26 390.844 246.996C390.64 246.732 390.376 246.552 390.052 246.456L384.148 244.62L384.49 243.36L390.268 245.16C390.88 245.352 391.39 245.694 391.798 246.186C392.206 246.666 392.41 247.278 392.41 248.022V250.29C392.41 250.83 392.26 251.25 391.96 251.55C391.66 251.85 391.24 252 390.7 252H388V251.154C387.976 251.214 387.922 251.292 387.838 251.388C387.766 251.484 387.664 251.58 387.532 251.676C387.4 251.76 387.25 251.838 387.082 251.91C386.914 251.97 386.728 252 386.524 252H381.322ZM387.136 250.524V248.4C387.136 248.1 387.028 247.848 386.812 247.644C386.608 247.428 386.35 247.32 386.038 247.32H385.228C384.976 247.32 384.748 247.404 384.544 247.572C384.352 247.74 384.232 247.95 384.184 248.202L383.95 249.426C383.89 249.738 383.956 250.002 384.148 250.218C384.352 250.422 384.598 250.524 384.886 250.524H387.136ZM400.27 246.456V249.282C400.27 249.63 400.396 249.924 400.648 250.164C400.912 250.404 401.218 250.524 401.566 250.524H403.438C403.51 250.524 403.57 250.554 403.618 250.614C403.666 250.662 403.69 250.722 403.69 250.794V251.748C403.69 251.916 403.606 252 403.438 252H401.782C401.494 252 401.212 251.94 400.936 251.82C400.66 251.7 400.438 251.52 400.27 251.28V252.072C400.27 252.492 400.204 252.894 400.072 253.278C399.94 253.674 399.754 254.034 399.514 254.358C399.286 254.682 399.004 254.964 398.668 255.204C398.332 255.456 397.966 255.648 397.57 255.78L395.518 256.5L395.122 255.258L397.3 254.538C397.828 254.37 398.248 254.064 398.56 253.62C398.872 253.176 399.028 252.684 399.028 252.144V246.456H400.27ZM398.866 242.802H400.396V244.332H398.866V242.802ZM404.966 246.96L404.066 246.114L408.782 240.588L409.682 241.416L406.118 245.61H413.21C413.558 245.61 413.888 245.676 414.2 245.808C414.512 245.94 414.782 246.12 415.01 246.348C415.238 246.576 415.418 246.846 415.55 247.158C415.682 247.47 415.748 247.8 415.748 248.148V249.48C415.748 249.828 415.676 250.158 415.532 250.47C415.4 250.77 415.214 251.034 414.974 251.262C414.746 251.49 414.476 251.67 414.164 251.802C413.864 251.934 413.54 252 413.192 252H403.436C403.364 252 403.304 251.976 403.256 251.928C403.208 251.868 403.184 251.802 403.184 251.73V250.776C403.184 250.608 403.268 250.524 403.436 250.524H413.372C413.684 250.524 413.948 250.416 414.164 250.2C414.392 249.984 414.506 249.714 414.506 249.39V248.184C414.506 247.848 414.386 247.56 414.146 247.32C413.906 247.08 413.618 246.96 413.282 246.96H404.966ZM419.641 246.456V249.282C419.641 249.63 419.767 249.924 420.019 250.164C420.283 250.404 420.589 250.524 420.937 250.524H422.737C422.809 250.524 422.869 250.554 422.917 250.614C422.965 250.662 422.989 250.722 422.989 250.794V251.748C422.989 251.916 422.905 252 422.737 252H421.153C420.865 252 420.583 251.94 420.307 251.82C420.031 251.7 419.809 251.52 419.641 251.28V252.072C419.641 252.492 419.575 252.894 419.443 253.278C419.311 253.674 419.125 254.034 418.885 254.358C418.657 254.682 418.375 254.964 418.039 255.204C417.703 255.456 417.337 255.648 416.941 255.78L414.889 256.5L414.493 255.258L416.671 254.538C417.199 254.37 417.619 254.064 417.931 253.62C418.243 253.176 418.399 252.684 418.399 252.144V246.456H419.641ZM426.948 250.524H429.684V248.112C429.684 247.8 429.57 247.536 429.342 247.32C429.126 247.092 428.856 246.978 428.532 246.978H427.362C427.086 246.978 426.846 247.068 426.642 247.248C426.438 247.416 426.306 247.632 426.246 247.896L425.976 249.354C425.916 249.666 425.982 249.942 426.174 250.182C426.378 250.41 426.636 250.524 426.948 250.524ZM424.698 249.39L425.076 247.536C425.124 247.26 425.22 247.002 425.364 246.762C425.508 246.522 425.682 246.318 425.886 246.15C426.09 245.982 426.318 245.85 426.57 245.754C426.834 245.658 427.11 245.61 427.398 245.61H428.406C428.754 245.61 429.078 245.676 429.378 245.808C429.69 245.94 429.96 246.12 430.188 246.348C430.416 246.576 430.596 246.84 430.728 247.14C430.86 247.44 430.926 247.764 430.926 248.112V250.38C430.926 250.86 430.776 251.25 430.476 251.55C430.188 251.85 429.792 252 429.288 252H427.092C426.708 252 426.354 251.91 426.03 251.73C425.718 251.538 425.46 251.232 425.256 250.812C425.04 251.232 424.752 251.538 424.392 251.73C424.032 251.91 423.654 252 423.258 252H422.736C422.568 252 422.484 251.916 422.484 251.748V250.776C422.484 250.716 422.508 250.662 422.556 250.614C422.604 250.554 422.664 250.524 422.736 250.524H423.312C423.66 250.524 423.96 250.416 424.212 250.2C424.476 249.984 424.638 249.714 424.698 249.39Z" fill="#E6E6E6"/>
</svg>
