<svg width="30" height="24" viewBox="0 0 30 24" fill="none" xmlns="http://www.w3.org/2000/svg">
<path d="M16.4166 1.006C16.831 0.923655 17.3802 1.17069 17.3576 1.65346C17.3603 8.55241 17.3609 15.4513 17.3576 22.3503C17.3769 22.7115 17.0369 22.9732 16.7022 22.9984C16.3004 23.0655 15.7758 22.8251 15.7898 22.3622C15.7825 15.4766 15.7884 8.59092 15.7871 1.70592C15.7439 1.3367 16.066 1.03588 16.4166 1.006Z" fill="#FFA928"/>
<path d="M6.85492 3.86169C7.17102 3.77736 7.55285 3.82982 7.78063 4.0815C7.96391 4.28536 7.91477 4.57954 7.92274 4.83056C7.92008 9.70013 7.92207 14.5697 7.92207 19.4393C7.92871 19.6398 7.87824 19.8576 7.71156 19.9858C7.38617 20.2435 6.87617 20.2421 6.55344 19.9818C6.39008 19.8523 6.3416 19.6372 6.34824 19.4386C6.3509 14.4568 6.34625 9.47501 6.35024 4.49322C6.32965 4.18841 6.56871 3.9281 6.85492 3.86169Z" fill="#FFA928"/>
<path d="M19.4077 3.87137C19.7344 3.77243 20.1421 3.82422 20.3739 4.09516C20.5465 4.29969 20.4974 4.58391 20.506 4.83028C20.5034 9.70118 20.5053 14.5721 20.5053 19.4423C20.5113 19.6342 20.4648 19.8407 20.3121 19.9696C19.9834 20.2465 19.4462 20.2458 19.1201 19.9656C18.97 19.8368 18.9255 19.6329 18.9322 19.443C18.9328 14.6372 18.9322 9.83133 18.9322 5.02618C18.9362 4.79176 18.9149 4.55602 18.9521 4.32426C18.9973 4.09848 19.1958 3.93579 19.4077 3.87137Z" fill="#FFA928"/>
<path d="M13.0991 6.39351C13.4165 6.29191 13.8063 6.33308 14.05 6.57613C14.1875 6.70761 14.2154 6.90484 14.2134 7.08613C14.2121 10.3626 14.2121 13.6398 14.2134 16.9162C14.22 17.1141 14.1736 17.3286 14.0122 17.4594C13.6901 17.7231 13.1781 17.7264 12.8514 17.4694C12.6827 17.3406 12.6309 17.1214 12.6396 16.9196C12.6416 13.6185 12.6376 10.3168 12.6409 7.01507C12.6216 6.72886 12.8302 6.47187 13.0991 6.39351Z" fill="#FFA928"/>
<path d="M3.60135 6.58952C3.92409 6.45869 4.33514 6.48858 4.59877 6.73096C4.75549 6.86908 4.78338 7.08756 4.77873 7.28479C4.77608 10.4524 4.7794 13.6206 4.77741 16.7882C4.78604 16.996 4.70303 17.2125 4.52506 17.3301C4.17311 17.5658 3.63389 17.5446 3.34104 17.2225C3.16772 17.0279 3.20956 16.751 3.20358 16.5119C3.20823 13.3942 3.20026 10.2757 3.20756 7.15795C3.19959 6.90627 3.37092 6.6785 3.60135 6.58952Z" fill="#FFA928"/>
<path d="M25.6472 6.57803C25.9833 6.45451 26.4162 6.50033 26.6619 6.78056C26.8147 6.95455 26.7941 7.20025 26.7967 7.41541C26.7927 10.5365 26.7961 13.6576 26.7947 16.778C26.8167 17.0516 26.652 17.3186 26.3923 17.4115C25.9527 17.6134 25.2302 17.4162 25.2262 16.8517C25.2176 13.639 25.2242 10.4256 25.2229 7.21287C25.1983 6.93197 25.3823 6.66635 25.6472 6.57803Z" fill="#FFA928"/>
<path d="M0.479334 8.57498C0.921599 8.38307 1.63414 8.59158 1.62816 9.15537C1.63547 11.0121 1.6275 12.8695 1.63215 14.7269C1.63547 14.9168 1.6089 15.1266 1.46148 15.2634C1.15867 15.5476 0.65199 15.5629 0.312654 15.3351C0.133357 15.2183 0.0496852 15.0024 0.0589821 14.7939C0.0576539 12.9332 0.058318 11.0719 0.0589821 9.21115C0.0337477 8.93092 0.215037 8.66463 0.479334 8.57498Z" fill="#FFA928"/>
<path d="M22.52 8.5683C22.8427 8.4574 23.2451 8.49923 23.4922 8.75091C23.6316 8.88771 23.6515 9.09158 23.6502 9.27685C23.6469 11.1143 23.6509 12.9524 23.6482 14.7899C23.6575 15.0024 23.5705 15.2249 23.3846 15.3404C23.0419 15.5615 22.5352 15.5436 22.2377 15.2534C22.0764 15.1007 22.073 14.8656 22.0744 14.6597C22.081 12.821 22.0697 10.9828 22.0797 9.1447C22.0711 8.87576 22.2743 8.64798 22.52 8.5683Z" fill="#FFA928"/>
<path d="M28.8283 8.56104C29.1524 8.45611 29.5561 8.5026 29.7959 8.76225C29.926 8.89904 29.9433 9.09561 29.9426 9.2749C29.9393 11.1157 29.9433 12.9558 29.9406 14.7966C29.9486 15.0011 29.8676 15.2136 29.6929 15.3305C29.3536 15.5629 28.8409 15.5496 28.5375 15.2621C28.3887 15.1273 28.3641 14.9168 28.3675 14.7275C28.3721 12.8688 28.3641 11.0101 28.3715 9.15139C28.3608 8.87447 28.572 8.63807 28.8283 8.56104Z" fill="#FFA928"/>
<path d="M9.91328 9.18662C10.2446 9.06045 10.6716 9.10096 10.922 9.37056C11.0502 9.50471 11.0701 9.69795 11.0688 9.87459C11.0661 11.3163 11.0701 12.7573 11.0668 14.199C11.0754 14.4174 10.9711 14.6386 10.7786 14.7501C10.4306 14.9533 9.93321 14.9294 9.64434 14.6326C9.51418 14.4998 9.49227 14.3065 9.49426 14.1306C9.49758 12.6869 9.49293 11.2432 9.49625 9.79955C9.47633 9.52662 9.65895 9.2756 9.91328 9.18662Z" fill="#FFA928"/>
</svg>
