<svg width="54" height="54" viewBox="0 0 54 54" fill="none" xmlns="http://www.w3.org/2000/svg">
<rect width="54" height="54" rx="27" fill="#464646" fill-opacity="0.7"/>
<path d="M24.65 34.11V19.89C24.65 18.54 24.3035 18 23.4282 18H21.2218C20.3465 18 20 18.54 20 19.89V34.11C20 35.46 20.3465 36 21.2218 36H23.4282C24.3035 36 24.65 35.46 24.65 34.11Z" fill="white"/>
<path d="M34.0001 34.11V19.89C34.0001 18.54 33.6536 18 32.7783 18H30.5719C29.7026 18 29.3501 18.54 29.3501 19.89V34.11C29.3501 35.46 29.6966 36 30.5719 36H32.7783C33.6536 36 34.0001 35.46 34.0001 34.11Z" fill="white"/>
</svg>
