<svg width="36" height="36" viewBox="0 0 36 36" fill="none" xmlns="http://www.w3.org/2000/svg">
<path d="M30.9304 19.605C30.3604 19.605 29.8804 19.17 29.8054 18.6C29.4454 15.21 27.6154 12.135 24.7954 10.185C24.2854 9.82503 24.1654 9.13503 24.5104 8.62503C24.8704 8.11503 25.5754 7.99503 26.0704 8.34003C29.4304 10.665 31.5904 14.325 32.0254 18.36C32.0854 18.975 31.6504 19.53 31.0204 19.605C31.0054 19.605 30.9604 19.605 30.9304 19.605Z" fill="white"/>
<path d="M5.23584 19.6799C5.19084 19.6799 5.16084 19.6799 5.11584 19.6799C4.50084 19.6049 4.05084 19.0499 4.11084 18.4349C4.51584 14.3999 6.66084 10.7549 9.97584 8.3999C10.4858 8.0399 11.1908 8.1599 11.5508 8.6699C11.9108 9.1799 11.7908 9.8849 11.2808 10.2449C8.49083 12.2099 6.69084 15.2849 6.34584 18.6749C6.30084 19.2449 5.80584 19.6799 5.23584 19.6799Z" fill="white"/>
<path d="M18.0899 33.915C15.8699 33.915 13.7549 33.405 11.7749 32.415C11.2199 32.13 10.9949 31.455 11.2799 30.9C11.5649 30.345 12.2399 30.12 12.7949 30.405C16.0349 32.04 19.9349 32.07 23.2049 30.495C23.7599 30.225 24.4349 30.465 24.7049 31.02C24.9749 31.575 24.735 32.25 24.1799 32.52C22.2599 33.45 20.2199 33.915 18.0899 33.915Z" fill="white"/>
<path d="M18.0899 12.66C15.1649 12.66 12.7949 10.29 12.7949 7.36501C12.7949 4.44001 15.1649 2.07001 18.0899 2.07001C21.0149 2.07001 23.3849 4.44001 23.3849 7.36501C23.3849 10.29 20.9999 12.66 18.0899 12.66ZM18.0899 4.33501C16.4099 4.33501 15.0449 5.70001 15.0449 7.38001C15.0449 9.06001 16.4099 10.425 18.0899 10.425C19.7699 10.425 21.1349 9.06001 21.1349 7.38001C21.1349 5.70001 19.7549 4.33501 18.0899 4.33501Z" fill="white"/>
<path d="M7.24422 31.005C4.31922 31.005 1.94922 28.635 1.94922 25.71C1.94922 22.8 4.31922 20.415 7.24422 20.415C10.1692 20.415 12.5392 22.785 12.5392 25.71C12.5392 28.62 10.1692 31.005 7.24422 31.005ZM7.24422 22.665C5.56422 22.665 4.19922 24.03 4.19922 25.71C4.19922 27.39 5.56422 28.755 7.24422 28.755C8.92422 28.755 10.2892 27.39 10.2892 25.71C10.2892 24.03 8.92422 22.665 7.24422 22.665Z" fill="white"/>
<path d="M28.7559 31.005C25.8309 31.005 23.4609 28.635 23.4609 25.71C23.4609 22.8 25.8309 20.415 28.7559 20.415C31.6809 20.415 34.0509 22.785 34.0509 25.71C34.0359 28.62 31.6659 31.005 28.7559 31.005ZM28.7559 22.665C27.0759 22.665 25.7109 24.03 25.7109 25.71C25.7109 27.39 27.0759 28.755 28.7559 28.755C30.4359 28.755 31.8009 27.39 31.8009 25.71C31.7859 24.03 30.4359 22.665 28.7559 22.665Z" fill="white"/>
</svg>
